999
FreeCAD v0.19 24276 (Git)
  0
SECTION
  2
HEADER
  9
$ACADVER
  1
AC1014
  9
$ACADMAINTVER
 70
     9
  9
$DWGCODEPAGE
  3
ANSI_1252
  9
$TEXTSTYLE
  7
STANDARD
  9
$DIMSTYLE
  2
STANDARD
  9
$DIMTXSTY
  7
STANDARD
  9
$CMLSTYLE
  2
STANDARD
  9
$PEXTMAX
 10
50
 20
50
 30
50
  9
$PEXTMIN
 10
0
 20
0
 30
0
  9
$HANDSEED
  5
FFFF
  0
ENDSEC
  0
SECTION
  2
CLASSES
  0
CLASS
  1
ACDBDICTIONARYWDFLT
  2
AcDbDictionaryWithDefault
  3
ObjectDBX Classes
 90
        0
280
     0
281
     0
  0
CLASS
  1
XRECORD
  2
AcDbXrecord
  3
ObjectDBX Classes
 90
        0
280
     0
281
     0
  0
CLASS
  1
LWPOLYLINE
  2
AcDbPolyline
  3
ObjectDBX Classes
 90
        0
280
     0
281
     1
  0
ENDSEC
  0
SECTION
  2
TABLES
  0
TABLE
  2
VPORT
  5
20
330
0
100
AcDbSymbolTable
 70
     1
  0
VPORT
  5
21
330
20
100
AcDbSymbolTableRecord
100
AcDbViewportTableRecord
  2
*ACTIVE
 70
     0
  0
ENDTAB
  0
TABLE
  2
LTYPE
  5
22
330
0
100
AcDbSymbolTable
 70
     1
  0
LTYPE
  5
23
330
21
100
AcDbSymbolTableRecord
100
AcDbLinetypeTableRecord
  2
BYBLOCK
 70
     0
  3

 72
    65
 73
     0
 40
0.0
  0
LTYPE
  5
24
330
21
100
AcDbSymbolTableRecord
100
AcDbLinetypeTableRecord
  2
BYLAYER
 70
     0
  3

 72
    65
 73
     0
 40
0.0
  0
LTYPE
  5
25
330
21
100
AcDbSymbolTableRecord
100
AcDbLinetypeTableRecord
  2
CONTINUOUS
 70
     0
  3
Solid line
 72
    65
 73
     0
 40
0.0
  0
ENDTAB
  0
TABLE
  2
LAYER
  5
A36
330
0
100
AcDbSymbolTable
 70
7
  0
LAYER
  5
A37
330
A36
100
AcDbSymbolTableRecord
100
AcDbLayerTableRecord
  2
0
 70
   0
 62
   7
  6
CONTINUOUS
  0
LAYER
  5
A38
330
A36
100
AcDbSymbolTableRecord
100
AcDbLayerTableRecord
  2
ProjItem
 70
    0
 62
    7
  6
CONTINUOUS
  0
LAYER
  5
A39
330
A36
100
AcDbSymbolTableRecord
100
AcDbLayerTableRecord
  2
ProjItem001
 70
    0
 62
    7
  6
CONTINUOUS
  0
LAYER
  5
A3A
330
A36
100
AcDbSymbolTableRecord
100
AcDbLayerTableRecord
  2
ProjItem002
 70
    0
 62
    7
  6
CONTINUOUS
  0
LAYER
  5
A3B
330
A36
100
AcDbSymbolTableRecord
100
AcDbLayerTableRecord
  2
Dimension
 70
    0
 62
    7
  6
CONTINUOUS
  0
LAYER
  5
A3C
330
A36
100
AcDbSymbolTableRecord
100
AcDbLayerTableRecord
  2
Dimension001
 70
    0
 62
    7
  6
CONTINUOUS
  0
LAYER
  5
A3D
330
A36
100
AcDbSymbolTableRecord
100
AcDbLayerTableRecord
  2
Dimension002
 70
    0
 62
    7
  6
CONTINUOUS
  0
ENDTAB
  0
TABLE
  2
STYLE
  5
70
330
0
100
AcDbSymbolTable
 70
     2
  0
STYLE
  5
71
330
70
100
AcDbSymbolTableRecord
100
AcDbTextStyleTableRecord
  2
STANDARD
 70
     0
 40
0.0
 41
1.0
 50
0.0
 71
     0
 42
2.5
  3
arial.ttf
  4

  0
STYLE
  5
72
330
70
100
AcDbSymbolTableRecord
100
AcDbTextStyleTableRecord
  2
ANNOTATIVE
 70
     0
 40
0.0
 41
1.0
 50
0.0
 71
     0
 42
2.5
  3
arial.ttf
  4

  0
ENDTAB
  0
TABLE
  2
VIEW
  5
73
330
0
100
AcDbSymbolTable
 70
     0
  0
ENDTAB
  0
TABLE
  2
UCS
  5
74
330
0
100
AcDbSymbolTable
 70
     0
  0
ENDTAB
  0
TABLE
  2
APPID
  5
75
330
0
100
AcDbSymbolTable
 70
     2
  0
APPID
  5
76
330
75
100
AcDbSymbolTableRecord
100
AcDbRegAppTableRecord
  2
ACAD
 70
     0
  0
APPID
  5
77
330
75
100
AcDbSymbolTableRecord
100
AcDbRegAppTableRecord
  2
ACADANNOTATIVE
 70
     0
  0
ENDTAB
  0
TABLE
  2
DIMSTYLE
  5
78
330
0
100
AcDbSymbolTable
 70
     2
  0
DIMSTYLE
105
79
330
78
100
AcDbSymbolTableRecord
100
AcDbDimStyleTableRecord
  2
STANDARD
 70
     0
  3

  4

  5

  6

  7

 40
0.0
 41
2.5
 42
0.625
 43
3.75
 44
1.25
 45
0.0
 46
0.0
 47
0.0
 48
0.0
140
2.5
141
2.5
142
0.0
143
0.03937007874016
144
1.0
145
0.0
146
1.0
147
0.625
 71
     0
 72
     0
 73
     0
 74
     0
 75
     0
 76
     0
 77
     1
 78
     8
170
     0
171
     3
172
     1
173
     0
174
     0
175
     0
176
     0
177
     0
178
     0
270
     2
271
     2
272
     2
273
     2
274
     3
340
71
275
     0
280
     0
281
     0
282
     0
283
     0
284
     8
285
     0
286
     0
287
     3
288
     0
  0
ENDTAB
  0
TABLE
  2
BLOCK_RECORD
  5
A01
330
0
100
AcDbSymbolTable
  70
5
  0
BLOCK_RECORD
  5
A02
330
A01
100
AcDbSymbolTableRecord
100
AcDbBlockTableRecord
  2
*MODEL_SPACE
  0
BLOCK_RECORD
  5
A03
330
A01
100
AcDbSymbolTableRecord
100
AcDbBlockTableRecord
  2
*PAPER_SPACE
  0
BLOCK_RECORD
  5
A1B
330
A01
100
AcDbSymbolTableRecord
100
AcDbBlockTableRecord
  2
*Dimension
  0
BLOCK_RECORD
  5
A25
330
A01
100
AcDbSymbolTableRecord
100
AcDbBlockTableRecord
  2
*Dimension001
  0
BLOCK_RECORD
  5
A2F
330
A01
100
AcDbSymbolTableRecord
100
AcDbBlockTableRecord
  2
*Dimension002
  0
ENDTAB
  0
ENDSEC
  0
SECTION
  2
BLOCKS
  0
BLOCK
  5
A04
330
A02
100
AcDbEntity
  8
0
100
AcDbBlockBegin
  2
*MODEL_SPACE
 70
   0
 10
0
 20
0
 30
0
  3
*MODEL_SPACE
  1
 
  0
ENDBLK
  5
A05
330
A02
100
AcDbEntity
  8
0
100
AcDbBlockEnd
  0
BLOCK
  5
A06
330
A03
100
AcDbEntity
 67
1
  8
0
100
AcDbBlockBegin
  2
*PAPER_SPACE
 70
   0
 10
0
 20
0
 30
0
  3
*PAPER_SPACE
  1
 
  0
ENDBLK
  5
A07
330
A03
100
AcDbEntity
 67
    1
  8
0
100
AcDbBlockEnd
  0
BLOCK
  5
A1C
330
A1B
100
AcDbEntity
  8
Dimension
100
AcDbBlockBegin
  2
*Dimension
 70
   1
 10
0
 20
0
 30
0
  3
*Dimension
  1
 
  0
LINE
  5
A1D
330
A1B
100
AcDbEntity
  8
Dimension
100
AcDbLine
 10
142.571
 20
144.846
 30
0
 11
134.912
 21
144.846
 31
0
  0
LINE
  5
A1E
330
A1B
100
AcDbEntity
  8
Dimension
100
AcDbLine
 10
142.571
 20
154.846
 30
0
 11
134.912
 21
154.846
 31
0
  0
LINE
  5
A1F
330
A1B
100
AcDbEntity
  8
Dimension
100
AcDbLine
 10
134.912
 20
154.846
 30
0
 11
134.912
 21
144.846
 31
0
  0
TEXT
  5
A20
330
A1B
100
AcDbEntity
  8
Dimension
100
AcDbText
 10
129.912
 20
149.056
 30
0
 40
3.5
  1
 mm
  7
STANDARD
 72
1
 11
134.912
 21
149.056
 31
0
100
AcDbText
  0
SOLID
  5
A21
330
A1B
100
AcDbEntity
  8
0
 62
     0
100
AcDbTrace
 10
134.495
 20
159.846
 30
0
 11
135.329
 21
159.846
 31
0
 12
134.912
 22
154.846
 32
0
 13
134.912
 23
154.846
 33
0
  0
SOLID
  5
A22
330
A1B
100
AcDbEntity
  8
0
 62
     0
100
AcDbTrace
 10
134.495
 20
139.846
 30
0
 11
135.329
 21
139.846
 31
0
 12
134.912
 22
144.846
 32
0
 13
134.912
 23
144.846
 33
0
  0
ENDBLK
  5
A23
330
A1B
100
AcDbEntity
  8
Dimension
100
AcDbBlockEnd
  0
BLOCK
  5
A26
330
A25
100
AcDbEntity
  8
Dimension001
100
AcDbBlockBegin
  2
*Dimension001
 70
   1
 10
0
 20
0
 30
0
  3
*Dimension001
  1
 
  0
LINE
  5
A27
330
A25
100
AcDbEntity
  8
Dimension001
100
AcDbLine
 10
190.401
 20
154.846
 30
0
 11
190.401
 21
163.066
 31
0
  0
LINE
  5
A28
330
A25
100
AcDbEntity
  8
Dimension001
100
AcDbLine
 10
142.571
 20
154.846
 30
0
 11
142.571
 21
163.066
 31
0
  0
LINE
  5
A29
330
A25
100
AcDbEntity
  8
Dimension001
100
AcDbLine
 10
142.571
 20
163.066
 30
0
 11
190.401
 21
163.066
 31
0
  0
TEXT
  5
A2A
330
A25
100
AcDbEntity
  8
Dimension001
100
AcDbText
 10
165.959
 20
168.066
 30
0
 40
3.5
  1
 mm
  7
STANDARD
 72
1
 11
165.959
 21
163.066
 31
0
100
AcDbText
  0
SOLID
  5
A2B
330
A25
100
AcDbEntity
  8
0
 62
     0
100
AcDbTrace
 10
137.571
 20
163.483
 30
0
 11
137.571
 21
162.65
 31
0
 12
142.571
 22
163.066
 32
0
 13
142.571
 23
163.066
 33
0
  0
SOLID
  5
A2C
330
A25
100
AcDbEntity
  8
0
 62
     0
100
AcDbTrace
 10
195.401
 20
163.483
 30
0
 11
195.401
 21
162.65
 31
0
 12
190.401
 22
163.066
 32
0
 13
190.401
 23
163.066
 33
0
  0
ENDBLK
  5
A2D
330
A25
100
AcDbEntity
  8
Dimension001
100
AcDbBlockEnd
  0
BLOCK
  5
A30
330
A2F
100
AcDbEntity
  8
Dimension002
100
AcDbBlockBegin
  2
*Dimension002
 70
   1
 10
0
 20
0
 30
0
  3
*Dimension002
  1
 
  0
LINE
  5
A31
330
A2F
100
AcDbEntity
  8
Dimension002
100
AcDbLine
 10
188.116
 20
87.0156
 30
0
 11
144.856
 21
87.0156
 31
0
  0
TEXT
  5
A32
330
A2F
100
AcDbEntity
  8
Dimension002
100
AcDbText
 10
194.759
 20
117.143
 30
0
 40
3.5
  1
⌀ mm
  7
STANDARD
 72
1
 11
194.759
 21
117.143
 31
0
100
AcDbText
  0
SOLID
  5
A33
330
A2F
100
AcDbEntity
  8
0
 62
     0
100
AcDbTrace
 10
183.116
 20
86.5989
 30
0
 11
183.116
 21
87.4322
 31
0
 12
188.116
 22
87.0156
 32
0
 13
188.116
 23
87.0156
 33
0
  0
SOLID
  5
A34
330
A2F
100
AcDbEntity
  8
0
 62
     0
100
AcDbTrace
 10
149.856
 20
86.5989
 30
0
 11
149.856
 21
87.4322
 31
0
 12
144.856
 22
87.0156
 32
0
 13
144.856
 23
87.0156
 33
0
  0
ENDBLK
  5
A35
330
A2F
100
AcDbEntity
  8
Dimension002
100
AcDbBlockEnd
  0
ENDSEC
  0
SECTION
  2
ENTITIES
  0
LINE
  5
A08
330
A02
100
AcDbEntity
  8
ProjItem
100
AcDbLine
 10
190.401
 20
144.846
 30
0
 11
190.401
 21
154.846
 31
0
  0
SPLINE
  5
A09
330
A02
100
AcDbEntity
  8
ProjItem
100
AcDbSpline
210
0
220
0
230
1
 70
8
 71
1
 72
17
 73
15
 74
0
 40
3.14159
 40
3.14159
 40
3.36599
 40
3.59039
 40
3.81479
 40
4.03919
 40
4.26359
 40
4.48799
 40
4.71239
 40
4.93679
 40
5.16119
 40
5.38559
 40
5.60999
 40
5.83439
 40
6.05879
 40
6.28319
 40
6.28319
 10
142.571
 20
144.846
 30
0
 10
143.17
 20
144.846
 30
0
 10
144.939
 20
144.846
 30
0
 10
147.788
 20
144.846
 30
0
 10
151.575
 20
144.846
 30
0
 10
156.109
 20
144.846
 30
0
 10
161.164
 20
144.846
 30
0
 10
166.486
 20
144.846
 30
0
 10
171.807
 20
144.846
 30
0
 10
176.862
 20
144.846
 30
0
 10
181.396
 20
144.846
 30
0
 10
185.183
 20
144.846
 30
0
 10
188.032
 20
144.846
 30
0
 10
189.801
 20
144.846
 30
0
 10
190.401
 20
144.846
 30
0
  0
SPLINE
  5
A0A
330
A02
100
AcDbEntity
  8
ProjItem
100
AcDbSpline
210
0
220
0
230
1
 70
8
 71
1
 72
17
 73
15
 74
0
 40
3.14159
 40
3.14159
 40
3.36599
 40
3.59039
 40
3.81479
 40
4.03919
 40
4.26359
 40
4.48799
 40
4.71239
 40
4.93679
 40
5.16119
 40
5.38559
 40
5.60999
 40
5.83439
 40
6.05879
 40
6.28319
 40
6.28319
 10
142.571
 20
154.846
 30
0
 10
143.17
 20
154.846
 30
0
 10
144.939
 20
154.846
 30
0
 10
147.788
 20
154.846
 30
0
 10
151.575
 20
154.846
 30
0
 10
156.109
 20
154.846
 30
0
 10
161.164
 20
154.846
 30
0
 10
166.486
 20
154.846
 30
0
 10
171.807
 20
154.846
 30
0
 10
176.862
 20
154.846
 30
0
 10
181.396
 20
154.846
 30
0
 10
185.183
 20
154.846
 30
0
 10
188.032
 20
154.846
 30
0
 10
189.801
 20
154.846
 30
0
 10
190.401
 20
154.846
 30
0
  0
LINE
  5
A0B
330
A02
100
AcDbEntity
  8
ProjItem
100
AcDbLine
 10
142.571
 20
154.846
 30
0
 11
142.571
 21
144.846
 31
0
  0
ELLIPSE
  5
A0C
330
A02
100
AcDbEntity
  8
ProjItem001
100
AcDbEllipse
 10
257.31
 20
160.406
 30
0
 11
23.915
 21
1.46437e-15
 31
0
 40
0.57735
 41
3.14159
 42
0
  0
ELLIPSE
  5
A0D
330
A02
100
AcDbEntity
  8
ProjItem001
100
AcDbEllipse
 10
257.31
 20
168.571
 30
0
 11
23.915
 21
1.46437e-15
 31
0
 40
0.57735
 41
0.785398
 42
3.14159
  0
ELLIPSE
  5
A0E
330
A02
100
AcDbEntity
  8
ProjItem001
100
AcDbEllipse
 10
257.31
 20
168.571
 30
0
 11
23.915
 21
1.46437e-15
 31
0
 40
0.57735
 41
3.14159
 42
0
  0
ELLIPSE
  5
A0F
330
A02
100
AcDbEntity
  8
ProjItem001
100
AcDbEllipse
 10
257.31
 20
168.571
 30
0
 11
23.915
 21
1.46437e-15
 31
0
 40
0.57735
 41
0
 42
0.785398
  0
ELLIPSE
  5
A10
330
A02
100
AcDbEntity
  8
ProjItem001
100
AcDbEllipse
 10
257.31
 20
160.406
 30
0
 11
21.63
 21
1.32446e-15
 31
0
 40
0.57735
 41
0.785398
 42
2.80856
  0
ELLIPSE
  5
A11
330
A02
100
AcDbEntity
  8
ProjItem001
100
AcDbEllipse
 10
257.31
 20
160.406
 30
0
 11
21.63
 21
1.32446e-15
 31
0
 40
0.57735
 41
0.333032
 42
0.785398
  0
ELLIPSE
  5
A12
330
A02
100
AcDbEntity
  8
ProjItem001
100
AcDbEllipse
 10
257.31
 20
168.571
 30
0
 11
21.63
 21
1.32446e-15
 31
0
 40
0.57735
 41
0.785398
 42
3.14159
  0
ELLIPSE
  5
A13
330
A02
100
AcDbEntity
  8
ProjItem001
100
AcDbEllipse
 10
257.31
 20
168.571
 30
0
 11
21.63
 21
1.32446e-15
 31
0
 40
0.57735
 41
3.14159
 42
0
  0
ELLIPSE
  5
A14
330
A02
100
AcDbEntity
  8
ProjItem001
100
AcDbEllipse
 10
257.31
 20
168.571
 30
0
 11
21.63
 21
1.32446e-15
 31
0
 40
0.57735
 41
0
 42
0.785398
  0
LINE
  5
A15
330
A02
100
AcDbEntity
  8
ProjItem001
100
AcDbLine
 10
233.395
 20
168.571
 30
0
 11
233.395
 21
160.406
 31
0
  0
LINE
  5
A16
330
A02
100
AcDbEntity
  8
ProjItem001
100
AcDbLine
 10
281.225
 20
168.571
 30
0
 11
281.225
 21
160.406
 31
0
  0
LINE
  5
A17
330
A02
100
AcDbEntity
  8
ProjItem001
100
AcDbLine
 10
272.605
 20
169.236
 30
0
 11
272.605
 21
177.401
 31
0
  0
CIRCLE
  5
A18
330
A02
100
AcDbEntity
  8
ProjItem002
100
AcDbCircle
 10
166.486
 20
87.0156
 40
23.915
  0
CIRCLE
  5
A19
330
A02
100
AcDbEntity
  8
ProjItem002
100
AcDbCircle
 10
166.486
 20
87.0156
 40
21.63
  0
DIMENSION
  5
A1A
330
A02
100
AcDbEntity
  8
Dimension
100
AcDbDimension
  2
*Dimension
 10
134.912
 20
149.056
 30
0
 11
129.912
 21
149.056
 31
0
 70
32
  1
 mm
  3
STANDARD
100
AcDbAlignedDimension
 13
142.571
 23
154.846
 33
0
 14
142.571
 24
144.846
 34
0
 50
90
100
AcDbRotatedDimension
  0
DIMENSION
  5
A24
330
A02
100
AcDbEntity
  8
Dimension001
100
AcDbDimension
  2
*Dimension001
 10
165.959
 20
163.066
 30
0
 11
165.959
 21
168.066
 31
0
 70
32
  1
 mm
  3
STANDARD
100
AcDbAlignedDimension
 13
142.571
 23
154.846
 33
0
 14
190.401
 24
154.846
 34
0
100
AcDbRotatedDimension
  0
DIMENSION
  5
A2E
330
A02
100
AcDbEntity
  8
Dimension002
100
AcDbDimension
  2
*Dimension002
 10
188.116
 20
87.0156
 30
0
 11
194.759
 21
117.143
 31
0
 70
3
  1
⌀ mm
  3
STANDARD
100
AcDbDiametricDimension
 15
144.856
 25
87.0156
 35
0
 40
0
  0
ENDSEC
  0
SECTION
  2
OBJECTS
  0
DICTIONARY
  5
F000
330
0
100
AcDbDictionary
  3
ACAD_GROUP
350
F001
  0
DICTIONARY
  5
F001
330
F000
100
AcDbDictionary
  0
ENDSEC
  0
EOF