999
FreeCAD v0.19 24276 (Git)
  0
SECTION
  2
HEADER
  9
$ACADVER
  1
AC1014
  9
$ACADMAINTVER
 70
     9
  9
$DWGCODEPAGE
  3
ANSI_1252
  9
$TEXTSTYLE
  7
STANDARD
  9
$DIMSTYLE
  2
STANDARD
  9
$DIMTXSTY
  7
STANDARD
  9
$CMLSTYLE
  2
STANDARD
  9
$PEXTMAX
 10
50
 20
50
 30
50
  9
$PEXTMIN
 10
0
 20
0
 30
0
  9
$HANDSEED
  5
FFFF
  0
ENDSEC
  0
SECTION
  2
CLASSES
  0
CLASS
  1
ACDBDICTIONARYWDFLT
  2
AcDbDictionaryWithDefault
  3
ObjectDBX Classes
 90
        0
280
     0
281
     0
  0
CLASS
  1
XRECORD
  2
AcDbXrecord
  3
ObjectDBX Classes
 90
        0
280
     0
281
     0
  0
CLASS
  1
LWPOLYLINE
  2
AcDbPolyline
  3
ObjectDBX Classes
 90
        0
280
     0
281
     1
  0
ENDSEC
  0
SECTION
  2
TABLES
  0
TABLE
  2
VPORT
  5
20
330
0
100
AcDbSymbolTable
 70
     1
  0
VPORT
  5
21
330
20
100
AcDbSymbolTableRecord
100
AcDbViewportTableRecord
  2
*ACTIVE
 70
     0
  0
ENDTAB
  0
TABLE
  2
LTYPE
  5
22
330
0
100
AcDbSymbolTable
 70
     1
  0
LTYPE
  5
23
330
21
100
AcDbSymbolTableRecord
100
AcDbLinetypeTableRecord
  2
BYBLOCK
 70
     0
  3

 72
    65
 73
     0
 40
0.0
  0
LTYPE
  5
24
330
21
100
AcDbSymbolTableRecord
100
AcDbLinetypeTableRecord
  2
BYLAYER
 70
     0
  3

 72
    65
 73
     0
 40
0.0
  0
LTYPE
  5
25
330
21
100
AcDbSymbolTableRecord
100
AcDbLinetypeTableRecord
  2
CONTINUOUS
 70
     0
  3
Solid line
 72
    65
 73
     0
 40
0.0
  0
ENDTAB
  0
TABLE
  2
LAYER
  5
A6B
330
0
100
AcDbSymbolTable
 70
9
  0
LAYER
  5
A6C
330
A6B
100
AcDbSymbolTableRecord
100
AcDbLayerTableRecord
  2
0
 70
   0
 62
   7
  6
CONTINUOUS
  0
LAYER
  5
A6D
330
A6B
100
AcDbSymbolTableRecord
100
AcDbLayerTableRecord
  2
ProjItem
 70
    0
 62
    7
  6
CONTINUOUS
  0
LAYER
  5
A6E
330
A6B
100
AcDbSymbolTableRecord
100
AcDbLayerTableRecord
  2
ProjItem001
 70
    0
 62
    7
  6
CONTINUOUS
  0
LAYER
  5
A6F
330
A6B
100
AcDbSymbolTableRecord
100
AcDbLayerTableRecord
  2
ProjItem002
 70
    0
 62
    7
  6
CONTINUOUS
  0
LAYER
  5
A70
330
A6B
100
AcDbSymbolTableRecord
100
AcDbLayerTableRecord
  2
Dimension002
 70
    0
 62
    7
  6
CONTINUOUS
  0
LAYER
  5
A71
330
A6B
100
AcDbSymbolTableRecord
100
AcDbLayerTableRecord
  2
Dimension003
 70
    0
 62
    7
  6
CONTINUOUS
  0
LAYER
  5
A72
330
A6B
100
AcDbSymbolTableRecord
100
AcDbLayerTableRecord
  2
Dimension
 70
    0
 62
    7
  6
CONTINUOUS
  0
LAYER
  5
A73
330
A6B
100
AcDbSymbolTableRecord
100
AcDbLayerTableRecord
  2
Dimension004
 70
    0
 62
    7
  6
CONTINUOUS
  0
LAYER
  5
A74
330
A6B
100
AcDbSymbolTableRecord
100
AcDbLayerTableRecord
  2
Dimension005
 70
    0
 62
    7
  6
CONTINUOUS
  0
ENDTAB
  0
TABLE
  2
STYLE
  5
70
330
0
100
AcDbSymbolTable
 70
     2
  0
STYLE
  5
71
330
70
100
AcDbSymbolTableRecord
100
AcDbTextStyleTableRecord
  2
STANDARD
 70
     0
 40
0.0
 41
1.0
 50
0.0
 71
     0
 42
2.5
  3
arial.ttf
  4

  0
STYLE
  5
72
330
70
100
AcDbSymbolTableRecord
100
AcDbTextStyleTableRecord
  2
ANNOTATIVE
 70
     0
 40
0.0
 41
1.0
 50
0.0
 71
     0
 42
2.5
  3
arial.ttf
  4

  0
ENDTAB
  0
TABLE
  2
VIEW
  5
73
330
0
100
AcDbSymbolTable
 70
     0
  0
ENDTAB
  0
TABLE
  2
UCS
  5
74
330
0
100
AcDbSymbolTable
 70
     0
  0
ENDTAB
  0
TABLE
  2
APPID
  5
75
330
0
100
AcDbSymbolTable
 70
     2
  0
APPID
  5
76
330
75
100
AcDbSymbolTableRecord
100
AcDbRegAppTableRecord
  2
ACAD
 70
     0
  0
APPID
  5
77
330
75
100
AcDbSymbolTableRecord
100
AcDbRegAppTableRecord
  2
ACADANNOTATIVE
 70
     0
  0
ENDTAB
  0
TABLE
  2
DIMSTYLE
  5
78
330
0
100
AcDbSymbolTable
 70
     2
  0
DIMSTYLE
105
79
330
78
100
AcDbSymbolTableRecord
100
AcDbDimStyleTableRecord
  2
STANDARD
 70
     0
  3

  4

  5

  6

  7

 40
0.0
 41
2.5
 42
0.625
 43
3.75
 44
1.25
 45
0.0
 46
0.0
 47
0.0
 48
0.0
140
2.5
141
2.5
142
0.0
143
0.03937007874016
144
1.0
145
0.0
146
1.0
147
0.625
 71
     0
 72
     0
 73
     0
 74
     0
 75
     0
 76
     0
 77
     1
 78
     8
170
     0
171
     3
172
     1
173
     0
174
     0
175
     0
176
     0
177
     0
178
     0
270
     2
271
     2
272
     2
273
     2
274
     3
340
71
275
     0
280
     0
281
     0
282
     0
283
     0
284
     8
285
     0
286
     0
287
     3
288
     0
  0
ENDTAB
  0
TABLE
  2
BLOCK_RECORD
  5
A01
330
0
100
AcDbSymbolTable
  70
5
  0
BLOCK_RECORD
  5
A02
330
A01
100
AcDbSymbolTableRecord
100
AcDbBlockTableRecord
  2
*MODEL_SPACE
  0
BLOCK_RECORD
  5
A03
330
A01
100
AcDbSymbolTableRecord
100
AcDbBlockTableRecord
  2
*PAPER_SPACE
  0
BLOCK_RECORD
  5
A40
330
A01
100
AcDbSymbolTableRecord
100
AcDbBlockTableRecord
  2
*Dimension002
  0
BLOCK_RECORD
  5
A4A
330
A01
100
AcDbSymbolTableRecord
100
AcDbBlockTableRecord
  2
*Dimension003
  0
BLOCK_RECORD
  5
A54
330
A01
100
AcDbSymbolTableRecord
100
AcDbBlockTableRecord
  2
*Dimension
  0
BLOCK_RECORD
  5
A5B
330
A01
100
AcDbSymbolTableRecord
100
AcDbBlockTableRecord
  2
*Dimension004
  0
BLOCK_RECORD
  5
A62
330
A01
100
AcDbSymbolTableRecord
100
AcDbBlockTableRecord
  2
*Dimension005
  0
ENDTAB
  0
ENDSEC
  0
SECTION
  2
BLOCKS
  0
BLOCK
  5
A04
330
A02
100
AcDbEntity
  8
0
100
AcDbBlockBegin
  2
*MODEL_SPACE
 70
   0
 10
0
 20
0
 30
0
  3
*MODEL_SPACE
  1
 
  0
ENDBLK
  5
A05
330
A02
100
AcDbEntity
  8
0
100
AcDbBlockEnd
  0
BLOCK
  5
A06
330
A03
100
AcDbEntity
 67
1
  8
0
100
AcDbBlockBegin
  2
*PAPER_SPACE
 70
   0
 10
0
 20
0
 30
0
  3
*PAPER_SPACE
  1
 
  0
ENDBLK
  5
A07
330
A03
100
AcDbEntity
 67
    1
  8
0
100
AcDbBlockEnd
  0
BLOCK
  5
A41
330
A40
100
AcDbEntity
  8
Dimension002
100
AcDbBlockBegin
  2
*Dimension002
 70
   1
 10
0
 20
0
 30
0
  3
*Dimension002
  1
 
  0
LINE
  5
A42
330
A40
100
AcDbEntity
  8
Dimension002
100
AcDbLine
 10
89.6599
 20
165.721
 30
0
 11
89.6599
 21
191.454
 31
0
  0
LINE
  5
A43
330
A40
100
AcDbEntity
  8
Dimension002
100
AcDbLine
 10
165.86
 20
165.721
 30
0
 11
165.86
 21
191.454
 31
0
  0
LINE
  5
A44
330
A40
100
AcDbEntity
  8
Dimension002
100
AcDbLine
 10
165.86
 20
191.454
 30
0
 11
89.6599
 21
191.454
 31
0
  0
TEXT
  5
A45
330
A40
100
AcDbEntity
  8
Dimension002
100
AcDbText
 10
126.482
 20
186.454
 30
0
 40
3.5
  1
 mm
  7
STANDARD
 72
1
 11
126.482
 21
191.454
 31
0
100
AcDbText
  0
SOLID
  5
A46
330
A40
100
AcDbEntity
  8
0
 62
     0
100
AcDbTrace
 10
170.86
 20
191.871
 30
0
 11
170.86
 21
191.038
 31
0
 12
165.86
 22
191.454
 32
0
 13
165.86
 23
191.454
 33
0
  0
SOLID
  5
A47
330
A40
100
AcDbEntity
  8
0
 62
     0
100
AcDbTrace
 10
84.6599
 20
191.871
 30
0
 11
84.6599
 21
191.038
 31
0
 12
89.6599
 22
191.454
 32
0
 13
89.6599
 23
191.454
 33
0
  0
ENDBLK
  5
A48
330
A40
100
AcDbEntity
  8
Dimension002
100
AcDbBlockEnd
  0
BLOCK
  5
A4B
330
A4A
100
AcDbEntity
  8
Dimension003
100
AcDbBlockBegin
  2
*Dimension003
 70
   1
 10
0
 20
0
 30
0
  3
*Dimension003
  1
 
  0
LINE
  5
A4C
330
A4A
100
AcDbEntity
  8
Dimension003
100
AcDbLine
 10
163.36
 20
92.0214
 30
0
 11
177.96
 21
92.0214
 31
0
  0
LINE
  5
A4D
330
A4A
100
AcDbEntity
  8
Dimension003
100
AcDbLine
 10
163.36
 20
168.221
 30
0
 11
177.96
 21
168.221
 31
0
  0
LINE
  5
A4E
330
A4A
100
AcDbEntity
  8
Dimension003
100
AcDbLine
 10
177.96
 20
168.221
 30
0
 11
177.96
 21
92.0214
 31
0
  0
TEXT
  5
A4F
330
A4A
100
AcDbEntity
  8
Dimension003
100
AcDbText
 10
172.96
 20
136.721
 30
0
 40
3.5
  1
 mm
  7
STANDARD
 72
1
 11
177.96
 21
136.721
 31
0
100
AcDbText
  0
SOLID
  5
A50
330
A4A
100
AcDbEntity
  8
0
 62
     0
100
AcDbTrace
 10
178.377
 20
173.221
 30
0
 11
177.543
 21
173.221
 31
0
 12
177.96
 22
168.221
 32
0
 13
177.96
 23
168.221
 33
0
  0
SOLID
  5
A51
330
A4A
100
AcDbEntity
  8
0
 62
     0
100
AcDbTrace
 10
178.377
 20
87.0214
 30
0
 11
177.543
 21
87.0214
 31
0
 12
177.96
 22
92.0214
 32
0
 13
177.96
 23
92.0214
 33
0
  0
ENDBLK
  5
A52
330
A4A
100
AcDbEntity
  8
Dimension003
100
AcDbBlockEnd
  0
BLOCK
  5
A55
330
A54
100
AcDbEntity
  8
Dimension
100
AcDbBlockBegin
  2
*Dimension
 70
   1
 10
0
 20
0
 30
0
  3
*Dimension
  1
 
  0
LINE
  5
A56
330
A54
100
AcDbEntity
  8
Dimension
100
AcDbLine
 10
100.26
 20
157.621
 30
0
 11
103.26
 21
157.621
 31
0
  0
TEXT
  5
A57
330
A54
100
AcDbEntity
  8
Dimension
100
AcDbText
 10
116.192
 20
150.891
 30
0
 40
3.5
  1
R mm
  7
STANDARD
 72
1
 11
116.192
 21
150.891
 31
0
100
AcDbText
  0
SOLID
  5
A58
330
A54
100
AcDbEntity
  8
0
 62
     0
100
AcDbTrace
 10
98.2599
 20
158.038
 30
0
 11
98.2599
 21
157.205
 31
0
 12
103.26
 22
157.621
 32
0
 13
103.26
 23
157.621
 33
0
  0
ENDBLK
  5
A59
330
A54
100
AcDbEntity
  8
Dimension
100
AcDbBlockEnd
  0
BLOCK
  5
A5C
330
A5B
100
AcDbEntity
  8
Dimension004
100
AcDbBlockBegin
  2
*Dimension004
 70
   1
 10
0
 20
0
 30
0
  3
*Dimension004
  1
 
  0
LINE
  5
A5D
330
A5B
100
AcDbEntity
  8
Dimension004
100
AcDbLine
 10
92.1599
 20
94.5214
 30
0
 11
90.3921
 21
92.7536
 31
0
  0
TEXT
  5
A5E
330
A5B
100
AcDbEntity
  8
Dimension004
100
AcDbText
 10
74.9156
 20
90.4224
 30
0
 40
3.5
  1
R mm
  7
STANDARD
 72
1
 11
74.9156
 21
90.4224
 31
0
100
AcDbText
  0
SOLID
  5
A5F
330
A5B
100
AcDbEntity
  8
0
 62
     0
100
AcDbTrace
 10
94.2223
 20
95.9945
 30
0
 11
93.633
 21
96.5838
 31
0
 12
90.3921
 22
92.7536
 32
0
 13
90.3921
 23
92.7536
 33
0
  0
ENDBLK
  5
A60
330
A5B
100
AcDbEntity
  8
Dimension004
100
AcDbBlockEnd
  0
BLOCK
  5
A63
330
A62
100
AcDbEntity
  8
Dimension005
100
AcDbBlockBegin
  2
*Dimension005
 70
   1
 10
0
 20
0
 30
0
  3
*Dimension005
  1
 
  0
LINE
  5
A64
330
A62
100
AcDbEntity
  8
Dimension005
100
AcDbLine
 10
46.5483
 20
165.721
 30
0
 11
46.5483
 21
176.233
 31
0
  0
LINE
  5
A65
330
A62
100
AcDbEntity
  8
Dimension005
100
AcDbLine
 10
41.5483
 20
165.721
 30
0
 11
41.5483
 21
176.233
 31
0
  0
LINE
  5
A66
330
A62
100
AcDbEntity
  8
Dimension005
100
AcDbLine
 10
41.5483
 20
176.233
 30
0
 11
46.5483
 21
176.233
 31
0
  0
TEXT
  5
A67
330
A62
100
AcDbEntity
  8
Dimension005
100
AcDbText
 10
43.2596
 20
181.233
 30
0
 40
3.5
  1
 mm
  7
STANDARD
 72
1
 11
43.2596
 21
176.233
 31
0
100
AcDbText
  0
SOLID
  5
A68
330
A62
100
AcDbEntity
  8
0
 62
     0
100
AcDbTrace
 10
36.5483
 20
176.65
 30
0
 11
36.5483
 21
175.816
 31
0
 12
41.5483
 22
176.233
 32
0
 13
41.5483
 23
176.233
 33
0
  0
SOLID
  5
A69
330
A62
100
AcDbEntity
  8
0
 62
     0
100
AcDbTrace
 10
51.5483
 20
176.65
 30
0
 11
51.5483
 21
175.816
 31
0
 12
46.5483
 22
176.233
 32
0
 13
46.5483
 23
176.233
 33
0
  0
ENDBLK
  5
A6A
330
A62
100
AcDbEntity
  8
Dimension005
100
AcDbBlockEnd
  0
ENDSEC
  0
SECTION
  2
ENTITIES
  0
LINE
  5
A08
330
A02
100
AcDbEntity
  8
ProjItem
100
AcDbLine
 10
89.6599
 20
94.5214
 30
0
 11
89.6599
 21
165.721
 31
0
  0
ARC
  5
A09
330
A02
100
AcDbEntity
  8
ProjItem
100
AcDbCircle
 10
92.1599
 20
94.5214
 30
0
 40
2.5
100
AcDbArc
 50
180
 51
-90
  0
ARC
  5
A0A
330
A02
100
AcDbEntity
  8
ProjItem
100
AcDbCircle
 10
92.1599
 20
165.721
 30
0
 40
2.5
100
AcDbArc
 50
90
 51
180
  0
LINE
  5
A0B
330
A02
100
AcDbEntity
  8
ProjItem
100
AcDbLine
 10
163.36
 20
92.0214
 30
0
 11
92.1599
 21
92.0214
 31
0
  0
LINE
  5
A0C
330
A02
100
AcDbEntity
  8
ProjItem
100
AcDbLine
 10
92.1599
 20
168.221
 30
0
 11
163.36
 21
168.221
 31
0
  0
ARC
  5
A0D
330
A02
100
AcDbEntity
  8
ProjItem
100
AcDbCircle
 10
163.36
 20
94.5214
 30
0
 40
2.5
100
AcDbArc
 50
-90
 51
0
  0
ARC
  5
A0E
330
A02
100
AcDbEntity
  8
ProjItem
100
AcDbCircle
 10
163.36
 20
165.721
 30
0
 40
2.5
100
AcDbArc
 50
0
 51
90
  0
LINE
  5
A0F
330
A02
100
AcDbEntity
  8
ProjItem
100
AcDbLine
 10
165.86
 20
165.721
 30
0
 11
165.86
 21
94.5214
 31
0
  0
CIRCLE
  5
A10
330
A02
100
AcDbEntity
  8
ProjItem
100
AcDbCircle
 10
155.26
 20
102.621
 40
3
  0
CIRCLE
  5
A11
330
A02
100
AcDbEntity
  8
ProjItem
100
AcDbCircle
 10
100.26
 20
102.621
 40
3
  0
CIRCLE
  5
A12
330
A02
100
AcDbEntity
  8
ProjItem
100
AcDbCircle
 10
155.26
 20
157.621
 40
3
  0
CIRCLE
  5
A13
330
A02
100
AcDbEntity
  8
ProjItem
100
AcDbCircle
 10
100.26
 20
157.621
 40
3
  0
LINE
  5
A14
330
A02
100
AcDbEntity
  8
ProjItem001
100
AcDbLine
 10
207.27
 20
111.776
 30
0
 11
207.27
 21
169.91
 31
0
  0
ELLIPSE
  5
A15
330
A02
100
AcDbEntity
  8
ProjItem001
100
AcDbEllipse
 10
209.038
 20
110.755
 30
0
 11
-1.25
 21
2.16506
 31
0
 40
0.57735
 41
0.785398
 42
2.35619
  0
ELLIPSE
  5
A16
330
A02
100
AcDbEntity
  8
ProjItem001
100
AcDbEllipse
 10
209.038
 20
168.89
 30
0
 11
-1.25
 21
2.16506
 31
0
 40
0.57735
 41
5.49779
 42
0
  0
ELLIPSE
  5
A17
330
A02
100
AcDbEntity
  8
ProjItem001
100
AcDbEllipse
 10
209.038
 20
168.89
 30
0
 11
-1.25
 21
2.16506
 31
0
 40
0.57735
 41
0
 42
0.785398
  0
ELLIPSE
  5
A18
330
A02
100
AcDbEntity
  8
ProjItem001
100
AcDbEllipse
 10
212.574
 20
170.931
 30
0
 11
-1.25
 21
2.16506
 31
0
 40
0.57735
 41
5.49779
 42
0
  0
LINE
  5
A19
330
A02
100
AcDbEntity
  8
ProjItem001
100
AcDbLine
 10
259.384
 20
79.6466
 30
0
 11
209.038
 21
108.714
 31
0
  0
LINE
  5
A1A
330
A02
100
AcDbEntity
  8
ProjItem001
100
AcDbLine
 10
209.038
 20
170.931
 30
0
 11
259.384
 21
141.864
 31
0
  0
ELLIPSE
  5
A1B
330
A02
100
AcDbEntity
  8
ProjItem001
100
AcDbEllipse
 10
259.384
 20
81.6878
 30
0
 11
-1.25
 21
2.16506
 31
0
 40
0.57735
 41
2.35619
 42
3.14159
  0
ELLIPSE
  5
A1C
330
A02
100
AcDbEntity
  8
ProjItem001
100
AcDbEllipse
 10
259.384
 20
81.6878
 30
0
 11
-1.25
 21
2.16506
 31
0
 40
0.57735
 41
3.14159
 42
3.92699
  0
ELLIPSE
  5
A1D
330
A02
100
AcDbEntity
  8
ProjItem001
100
AcDbEllipse
 10
259.384
 20
139.822
 30
0
 11
-1.25
 21
2.16506
 31
0
 40
0.57735
 41
3.92699
 42
5.49779
  0
LINE
  5
A1E
330
A02
100
AcDbEntity
  8
ProjItem001
100
AcDbLine
 10
261.152
 20
138.802
 30
0
 11
261.152
 21
80.6672
 31
0
  0
ELLIPSE
  5
A1F
330
A02
100
AcDbEntity
  8
ProjItem001
100
AcDbEllipse
 10
253.656
 20
91.6083
 30
0
 11
-1.5
 21
2.59808
 31
0
 40
0.57735
 41
3.92699
 42
0
  0
ELLIPSE
  5
A20
330
A02
100
AcDbEntity
  8
ProjItem001
100
AcDbEllipse
 10
253.656
 20
91.6083
 30
0
 11
-1.5
 21
2.59808
 31
0
 40
0.57735
 41
0
 42
3.14159
  0
ELLIPSE
  5
A21
330
A02
100
AcDbEntity
  8
ProjItem001
100
AcDbEllipse
 10
253.656
 20
91.6083
 30
0
 11
-1.5
 21
2.59808
 31
0
 40
0.57735
 41
3.14159
 42
3.92699
  0
ELLIPSE
  5
A22
330
A02
100
AcDbEntity
  8
ProjItem001
100
AcDbEllipse
 10
214.766
 20
114.062
 30
0
 11
-1.5
 21
2.59808
 31
0
 40
0.57735
 41
3.92699
 42
0
  0
ELLIPSE
  5
A23
330
A02
100
AcDbEntity
  8
ProjItem001
100
AcDbEllipse
 10
214.766
 20
114.062
 30
0
 11
-1.5
 21
2.59808
 31
0
 40
0.57735
 41
0
 42
3.14159
  0
ELLIPSE
  5
A24
330
A02
100
AcDbEntity
  8
ProjItem001
100
AcDbEllipse
 10
214.766
 20
114.062
 30
0
 11
-1.5
 21
2.59808
 31
0
 40
0.57735
 41
3.14159
 42
3.92699
  0
ELLIPSE
  5
A25
330
A02
100
AcDbEntity
  8
ProjItem001
100
AcDbEllipse
 10
253.656
 20
136.516
 30
0
 11
-1.5
 21
2.59808
 31
0
 40
0.57735
 41
3.92699
 42
0
  0
ELLIPSE
  5
A26
330
A02
100
AcDbEntity
  8
ProjItem001
100
AcDbEllipse
 10
253.656
 20
136.516
 30
0
 11
-1.5
 21
2.59808
 31
0
 40
0.57735
 41
0
 42
3.14159
  0
ELLIPSE
  5
A27
330
A02
100
AcDbEntity
  8
ProjItem001
100
AcDbEllipse
 10
253.656
 20
136.516
 30
0
 11
-1.5
 21
2.59808
 31
0
 40
0.57735
 41
3.14159
 42
3.92699
  0
ELLIPSE
  5
A28
330
A02
100
AcDbEntity
  8
ProjItem001
100
AcDbEllipse
 10
214.766
 20
158.969
 30
0
 11
-1.5
 21
2.59808
 31
0
 40
0.57735
 41
3.92699
 42
0
  0
ELLIPSE
  5
A29
330
A02
100
AcDbEntity
  8
ProjItem001
100
AcDbEllipse
 10
214.766
 20
158.969
 30
0
 11
-1.5
 21
2.59808
 31
0
 40
0.57735
 41
0
 42
3.14159
  0
ELLIPSE
  5
A2A
330
A02
100
AcDbEntity
  8
ProjItem001
100
AcDbEllipse
 10
214.766
 20
158.969
 30
0
 11
-1.5
 21
2.59808
 31
0
 40
0.57735
 41
3.14159
 42
3.92699
  0
LINE
  5
A2B
330
A02
100
AcDbEntity
  8
ProjItem001
100
AcDbLine
 10
212.574
 20
172.972
 30
0
 11
262.92
 21
143.905
 31
0
  0
ELLIPSE
  5
A2C
330
A02
100
AcDbEntity
  8
ProjItem001
100
AcDbEllipse
 10
262.92
 20
83.7291
 30
0
 11
-1.25
 21
2.16506
 31
0
 40
0.57735
 41
3.14159
 42
3.92699
  0
ELLIPSE
  5
A2D
330
A02
100
AcDbEntity
  8
ProjItem001
100
AcDbEllipse
 10
262.92
 20
141.864
 30
0
 11
-1.25
 21
2.16506
 31
0
 40
0.57735
 41
3.92699
 42
5.49779
  0
LINE
  5
A2E
330
A02
100
AcDbEntity
  8
ProjItem001
100
AcDbLine
 10
264.687
 20
140.843
 30
0
 11
264.687
 21
82.7085
 31
0
  0
LINE
  5
A2F
330
A02
100
AcDbEntity
  8
ProjItem001
100
AcDbLine
 10
211.324
 20
173.096
 30
0
 11
207.788
 21
171.055
 31
0
  0
LINE
  5
A30
330
A02
100
AcDbEntity
  8
ProjItem001
100
AcDbLine
 10
264.17
 20
81.564
 30
0
 11
260.634
 21
79.5228
 31
0
  0
LINE
  5
A31
330
A02
100
AcDbEntity
  8
ProjItem001
100
AcDbLine
 10
209.038
 20
170.931
 30
0
 11
212.574
 21
172.972
 31
0
  0
LINE
  5
A32
330
A02
100
AcDbEntity
  8
ProjItem001
100
AcDbLine
 10
259.384
 20
141.864
 30
0
 11
262.92
 21
143.905
 31
0
  0
LINE
  5
A33
330
A02
100
AcDbEntity
  8
ProjItem001
100
AcDbLine
 10
261.152
 20
80.6672
 30
0
 11
264.687
 21
82.7085
 31
0
  0
LINE
  5
A34
330
A02
100
AcDbEntity
  8
ProjItem001
100
AcDbLine
 10
261.152
 20
138.802
 30
0
 11
264.687
 21
140.843
 31
0
  0
SPLINE
  5
A35
330
A02
100
AcDbEntity
  8
ProjItem002
100
AcDbSpline
210
0
220
0
230
1
 70
8
 71
2
 72
30
 73
27
 74
0
 40
4.71239
 40
4.71239
 40
4.71239
 40
4.82459
 40
4.82459
 40
4.93679
 40
4.93679
 40
5.04899
 40
5.04899
 40
5.16119
 40
5.16119
 40
5.27339
 40
5.27339
 40
5.38559
 40
5.38559
 40
5.49779
 40
5.49779
 40
5.60999
 40
5.60999
 40
5.72219
 40
5.72219
 40
5.83439
 40
5.83439
 40
5.94659
 40
5.94659
 40
6.05879
 40
6.05879
 40
6.28319
 40
6.28319
 40
6.28319
 10
41.5483
 20
92.0214
 30
0
 10
41.5483
 20
92.0292
 30
0
 10
41.5483
 20
92.0371
 30
0
 10
41.5483
 20
92.0606
 30
0
 10
41.5483
 20
92.084
 30
0
 10
41.5483
 20
92.1228
 30
0
 10
41.5483
 20
92.1616
 30
0
 10
41.5483
 20
92.2153
 30
0
 10
41.5483
 20
92.2689
 30
0
 10
41.5483
 20
92.3367
 30
0
 10
41.5483
 20
92.4045
 30
0
 10
41.5483
 20
92.4857
 30
0
 10
41.5483
 20
92.5668
 30
0
 10
41.5483
 20
92.6602
 30
0
 10
41.5483
 20
92.7536
 30
0
 10
41.5483
 20
92.8581
 30
0
 10
41.5483
 20
92.9626
 30
0
 10
41.5483
 20
93.077
 30
0
 10
41.5483
 20
93.1913
 30
0
 10
41.5483
 20
93.314
 30
0
 10
41.5483
 20
93.4366
 30
0
 10
41.5483
 20
93.5662
 30
0
 10
41.5483
 20
93.6957
 30
0
 10
41.5483
 20
93.8304
 30
0
 10
41.5483
 20
93.9651
 30
0
 10
41.5483
 20
94.2405
 30
0
 10
41.5483
 20
94.5214
 30
0
  0
SPLINE
  5
A36
330
A02
100
AcDbEntity
  8
ProjItem002
100
AcDbSpline
210
0
220
0
230
1
 70
8
 71
2
 72
30
 73
27
 74
0
 40
-5e-15
 40
-5e-15
 40
-5e-15
 40
0.1122
 40
0.1122
 40
0.336599
 40
0.336599
 40
0.448799
 40
0.448799
 40
0.560999
 40
0.560999
 40
0.673198
 40
0.673198
 40
0.785398
 40
0.785398
 40
0.897598
 40
0.897598
 40
1.0098
 40
1.0098
 40
1.122
 40
1.122
 40
1.2342
 40
1.2342
 40
1.3464
 40
1.3464
 40
1.4586
 40
1.4586
 40
1.5708
 40
1.5708
 40
1.5708
 10
41.5483
 20
165.721
 30
0
 10
41.5483
 20
165.861
 30
0
 10
41.5483
 20
166.001
 30
0
 10
41.5483
 20
166.28
 30
0
 10
41.5483
 20
166.547
 30
0
 10
41.5483
 20
166.677
 30
0
 10
41.5483
 20
166.806
 30
0
 10
41.5483
 20
166.929
 30
0
 10
41.5483
 20
167.051
 30
0
 10
41.5483
 20
167.166
 30
0
 10
41.5483
 20
167.28
 30
0
 10
41.5483
 20
167.385
 30
0
 10
41.5483
 20
167.489
 30
0
 10
41.5483
 20
167.583
 30
0
 10
41.5483
 20
167.676
 30
0
 10
41.5483
 20
167.757
 30
0
 10
41.5483
 20
167.838
 30
0
 10
41.5483
 20
167.906
 30
0
 10
41.5483
 20
167.974
 30
0
 10
41.5483
 20
168.027
 30
0
 10
41.5483
 20
168.081
 30
0
 10
41.5483
 20
168.12
 30
0
 10
41.5483
 20
168.159
 30
0
 10
41.5483
 20
168.182
 30
0
 10
41.5483
 20
168.206
 30
0
 10
41.5483
 20
168.213
 30
0
 10
41.5483
 20
168.221
 30
0
  0
LINE
  5
A37
330
A02
100
AcDbEntity
  8
ProjItem002
100
AcDbLine
 10
41.5483
 20
165.721
 30
0
 11
41.5483
 21
94.5214
 31
0
  0
SPLINE
  5
A38
330
A02
100
AcDbEntity
  8
ProjItem002
100
AcDbSpline
210
0
220
0
230
1
 70
8
 71
2
 72
30
 73
27
 74
0
 40
4.71239
 40
4.71239
 40
4.71239
 40
4.82459
 40
4.82459
 40
4.93679
 40
4.93679
 40
5.04899
 40
5.04899
 40
5.16119
 40
5.16119
 40
5.27339
 40
5.27339
 40
5.38559
 40
5.38559
 40
5.49779
 40
5.49779
 40
5.60999
 40
5.60999
 40
5.72219
 40
5.72219
 40
5.83439
 40
5.83439
 40
5.94659
 40
5.94659
 40
6.05879
 40
6.05879
 40
6.28319
 40
6.28319
 40
6.28319
 10
46.5483
 20
92.0214
 30
0
 10
46.5483
 20
92.0292
 30
0
 10
46.5483
 20
92.0371
 30
0
 10
46.5483
 20
92.0606
 30
0
 10
46.5483
 20
92.084
 30
0
 10
46.5483
 20
92.1228
 30
0
 10
46.5483
 20
92.1616
 30
0
 10
46.5483
 20
92.2153
 30
0
 10
46.5483
 20
92.2689
 30
0
 10
46.5483
 20
92.3367
 30
0
 10
46.5483
 20
92.4045
 30
0
 10
46.5483
 20
92.4857
 30
0
 10
46.5483
 20
92.5668
 30
0
 10
46.5483
 20
92.6602
 30
0
 10
46.5483
 20
92.7536
 30
0
 10
46.5483
 20
92.8581
 30
0
 10
46.5483
 20
92.9626
 30
0
 10
46.5483
 20
93.077
 30
0
 10
46.5483
 20
93.1913
 30
0
 10
46.5483
 20
93.314
 30
0
 10
46.5483
 20
93.4366
 30
0
 10
46.5483
 20
93.5662
 30
0
 10
46.5483
 20
93.6957
 30
0
 10
46.5483
 20
93.8304
 30
0
 10
46.5483
 20
93.9651
 30
0
 10
46.5483
 20
94.2405
 30
0
 10
46.5483
 20
94.5214
 30
0
  0
SPLINE
  5
A39
330
A02
100
AcDbEntity
  8
ProjItem002
100
AcDbSpline
210
0
220
0
230
1
 70
8
 71
2
 72
30
 73
27
 74
0
 40
-5e-15
 40
-5e-15
 40
-5e-15
 40
0.1122
 40
0.1122
 40
0.336599
 40
0.336599
 40
0.448799
 40
0.448799
 40
0.560999
 40
0.560999
 40
0.673198
 40
0.673198
 40
0.785398
 40
0.785398
 40
0.897598
 40
0.897598
 40
1.0098
 40
1.0098
 40
1.122
 40
1.122
 40
1.2342
 40
1.2342
 40
1.3464
 40
1.3464
 40
1.4586
 40
1.4586
 40
1.5708
 40
1.5708
 40
1.5708
 10
46.5483
 20
165.721
 30
0
 10
46.5483
 20
165.861
 30
0
 10
46.5483
 20
166.001
 30
0
 10
46.5483
 20
166.28
 30
0
 10
46.5483
 20
166.547
 30
0
 10
46.5483
 20
166.677
 30
0
 10
46.5483
 20
166.806
 30
0
 10
46.5483
 20
166.929
 30
0
 10
46.5483
 20
167.051
 30
0
 10
46.5483
 20
167.166
 30
0
 10
46.5483
 20
167.28
 30
0
 10
46.5483
 20
167.385
 30
0
 10
46.5483
 20
167.489
 30
0
 10
46.5483
 20
167.583
 30
0
 10
46.5483
 20
167.676
 30
0
 10
46.5483
 20
167.757
 30
0
 10
46.5483
 20
167.838
 30
0
 10
46.5483
 20
167.906
 30
0
 10
46.5483
 20
167.974
 30
0
 10
46.5483
 20
168.027
 30
0
 10
46.5483
 20
168.081
 30
0
 10
46.5483
 20
168.12
 30
0
 10
46.5483
 20
168.159
 30
0
 10
46.5483
 20
168.182
 30
0
 10
46.5483
 20
168.206
 30
0
 10
46.5483
 20
168.213
 30
0
 10
46.5483
 20
168.221
 30
0
  0
LINE
  5
A3A
330
A02
100
AcDbEntity
  8
ProjItem002
100
AcDbLine
 10
46.5483
 20
165.721
 30
0
 11
46.5483
 21
94.5214
 31
0
  0
LINE
  5
A3B
330
A02
100
AcDbEntity
  8
ProjItem002
100
AcDbLine
 10
41.5483
 20
92.0214
 30
0
 11
46.5483
 21
92.0214
 31
0
  0
LINE
  5
A3C
330
A02
100
AcDbEntity
  8
ProjItem002
100
AcDbLine
 10
41.5483
 20
168.221
 30
0
 11
46.5483
 21
168.221
 31
0
  0
LINE
  5
A3D
330
A02
100
AcDbEntity
  8
ProjItem002
100
AcDbLine
 10
41.5483
 20
94.5214
 30
0
 11
46.5483
 21
94.5214
 31
0
  0
LINE
  5
A3E
330
A02
100
AcDbEntity
  8
ProjItem002
100
AcDbLine
 10
41.5483
 20
165.721
 30
0
 11
46.5483
 21
165.721
 31
0
  0
DIMENSION
  5
A3F
330
A02
100
AcDbEntity
  8
Dimension002
100
AcDbDimension
  2
*Dimension002
 10
126.482
 20
191.454
 30
0
 11
126.482
 21
186.454
 31
0
 70
32
  1
 mm
  3
STANDARD
100
AcDbAlignedDimension
 13
165.86
 23
165.721
 33
0
 14
89.6599
 24
165.721
 34
0
100
AcDbRotatedDimension
  0
DIMENSION
  5
A49
330
A02
100
AcDbEntity
  8
Dimension003
100
AcDbDimension
  2
*Dimension003
 10
177.96
 20
136.721
 30
0
 11
172.96
 21
136.721
 31
0
 70
32
  1
 mm
  3
STANDARD
100
AcDbAlignedDimension
 13
163.36
 23
168.221
 33
0
 14
163.36
 24
92.0214
 34
0
 50
90
100
AcDbRotatedDimension
  0
DIMENSION
  5
A53
330
A02
100
AcDbEntity
  8
Dimension
100
AcDbDimension
  2
*Dimension
 10
100.26
 20
157.621
 30
0
 11
116.192
 21
150.891
 31
0
 70
4
  1
R mm
  3
STANDARD
100
AcDbRadialDimension
 15
103.26
 25
157.621
 35
0
 40
0
  0
DIMENSION
  5
A5A
330
A02
100
AcDbEntity
  8
Dimension004
100
AcDbDimension
  2
*Dimension004
 10
92.1599
 20
94.5214
 30
0
 11
74.9156
 21
90.4224
 31
0
 70
4
  1
R mm
  3
STANDARD
100
AcDbRadialDimension
 15
90.3921
 25
92.7536
 35
0
 40
0
  0
DIMENSION
  5
A61
330
A02
100
AcDbEntity
  8
Dimension005
100
AcDbDimension
  2
*Dimension005
 10
43.2596
 20
176.233
 30
0
 11
43.2596
 21
181.233
 31
0
 70
32
  1
 mm
  3
STANDARD
100
AcDbAlignedDimension
 13
41.5483
 23
165.721
 33
0
 14
46.5483
 24
165.721
 34
0
100
AcDbRotatedDimension
  0
ENDSEC
  0
SECTION
  2
OBJECTS
  0
DICTIONARY
  5
F000
330
0
100
AcDbDictionary
  3
ACAD_GROUP
350
F001
  0
DICTIONARY
  5
F001
330
F000
100
AcDbDictionary
  0
ENDSEC
  0
EOF