999
FreeCAD v0.19 24276 (Git)
  0
SECTION
  2
HEADER
  9
$ACADVER
  1
AC1014
  9
$ACADMAINTVER
 70
     9
  9
$DWGCODEPAGE
  3
ANSI_1252
  9
$TEXTSTYLE
  7
STANDARD
  9
$DIMSTYLE
  2
STANDARD
  9
$DIMTXSTY
  7
STANDARD
  9
$CMLSTYLE
  2
STANDARD
  9
$PEXTMAX
 10
50
 20
50
 30
50
  9
$PEXTMIN
 10
0
 20
0
 30
0
  9
$HANDSEED
  5
FFFF
  0
ENDSEC
  0
SECTION
  2
CLASSES
  0
CLASS
  1
ACDBDICTIONARYWDFLT
  2
AcDbDictionaryWithDefault
  3
ObjectDBX Classes
 90
        0
280
     0
281
     0
  0
CLASS
  1
XRECORD
  2
AcDbXrecord
  3
ObjectDBX Classes
 90
        0
280
     0
281
     0
  0
CLASS
  1
LWPOLYLINE
  2
AcDbPolyline
  3
ObjectDBX Classes
 90
        0
280
     0
281
     1
  0
ENDSEC
  0
SECTION
  2
TABLES
  0
TABLE
  2
VPORT
  5
20
330
0
100
AcDbSymbolTable
 70
     1
  0
VPORT
  5
21
330
20
100
AcDbSymbolTableRecord
100
AcDbViewportTableRecord
  2
*ACTIVE
 70
     0
  0
ENDTAB
  0
TABLE
  2
LTYPE
  5
22
330
0
100
AcDbSymbolTable
 70
     1
  0
LTYPE
  5
23
330
21
100
AcDbSymbolTableRecord
100
AcDbLinetypeTableRecord
  2
BYBLOCK
 70
     0
  3

 72
    65
 73
     0
 40
0.0
  0
LTYPE
  5
24
330
21
100
AcDbSymbolTableRecord
100
AcDbLinetypeTableRecord
  2
BYLAYER
 70
     0
  3

 72
    65
 73
     0
 40
0.0
  0
LTYPE
  5
25
330
21
100
AcDbSymbolTableRecord
100
AcDbLinetypeTableRecord
  2
CONTINUOUS
 70
     0
  3
Solid line
 72
    65
 73
     0
 40
0.0
  0
ENDTAB
  0
TABLE
  2
LAYER
  5
A9C
330
0
100
AcDbSymbolTable
 70
13
  0
LAYER
  5
A9D
330
A9C
100
AcDbSymbolTableRecord
100
AcDbLayerTableRecord
  2
0
 70
   0
 62
   7
  6
CONTINUOUS
  0
LAYER
  5
A9E
330
A9C
100
AcDbSymbolTableRecord
100
AcDbLayerTableRecord
  2
ProjItem
 70
    0
 62
    7
  6
CONTINUOUS
  0
LAYER
  5
A9F
330
A9C
100
AcDbSymbolTableRecord
100
AcDbLayerTableRecord
  2
ProjItem001
 70
    0
 62
    7
  6
CONTINUOUS
  0
LAYER
  5
AA0
330
A9C
100
AcDbSymbolTableRecord
100
AcDbLayerTableRecord
  2
ProjItem002
 70
    0
 62
    7
  6
CONTINUOUS
  0
LAYER
  5
AA1
330
A9C
100
AcDbSymbolTableRecord
100
AcDbLayerTableRecord
  2
SectionView
 70
    0
 62
    7
  6
CONTINUOUS
  0
LAYER
  5
AA2
330
A9C
100
AcDbSymbolTableRecord
100
AcDbLayerTableRecord
  2
Dimension002
 70
    0
 62
    7
  6
CONTINUOUS
  0
LAYER
  5
AA3
330
A9C
100
AcDbSymbolTableRecord
100
AcDbLayerTableRecord
  2
Dimension003
 70
    0
 62
    7
  6
CONTINUOUS
  0
LAYER
  5
AA4
330
A9C
100
AcDbSymbolTableRecord
100
AcDbLayerTableRecord
  2
Dimension004
 70
    0
 62
    7
  6
CONTINUOUS
  0
LAYER
  5
AA5
330
A9C
100
AcDbSymbolTableRecord
100
AcDbLayerTableRecord
  2
Dimension
 70
    0
 62
    7
  6
CONTINUOUS
  0
LAYER
  5
AA6
330
A9C
100
AcDbSymbolTableRecord
100
AcDbLayerTableRecord
  2
Dimension005
 70
    0
 62
    7
  6
CONTINUOUS
  0
LAYER
  5
AA7
330
A9C
100
AcDbSymbolTableRecord
100
AcDbLayerTableRecord
  2
Dimension007
 70
    0
 62
    7
  6
CONTINUOUS
  0
LAYER
  5
AA8
330
A9C
100
AcDbSymbolTableRecord
100
AcDbLayerTableRecord
  2
Dimension008
 70
    0
 62
    7
  6
CONTINUOUS
  0
LAYER
  5
AA9
330
A9C
100
AcDbSymbolTableRecord
100
AcDbLayerTableRecord
  2
Dimension009
 70
    0
 62
    7
  6
CONTINUOUS
  0
ENDTAB
  0
TABLE
  2
STYLE
  5
70
330
0
100
AcDbSymbolTable
 70
     2
  0
STYLE
  5
71
330
70
100
AcDbSymbolTableRecord
100
AcDbTextStyleTableRecord
  2
STANDARD
 70
     0
 40
0.0
 41
1.0
 50
0.0
 71
     0
 42
2.5
  3
arial.ttf
  4

  0
STYLE
  5
72
330
70
100
AcDbSymbolTableRecord
100
AcDbTextStyleTableRecord
  2
ANNOTATIVE
 70
     0
 40
0.0
 41
1.0
 50
0.0
 71
     0
 42
2.5
  3
arial.ttf
  4

  0
ENDTAB
  0
TABLE
  2
VIEW
  5
73
330
0
100
AcDbSymbolTable
 70
     0
  0
ENDTAB
  0
TABLE
  2
UCS
  5
74
330
0
100
AcDbSymbolTable
 70
     0
  0
ENDTAB
  0
TABLE
  2
APPID
  5
75
330
0
100
AcDbSymbolTable
 70
     2
  0
APPID
  5
76
330
75
100
AcDbSymbolTableRecord
100
AcDbRegAppTableRecord
  2
ACAD
 70
     0
  0
APPID
  5
77
330
75
100
AcDbSymbolTableRecord
100
AcDbRegAppTableRecord
  2
ACADANNOTATIVE
 70
     0
  0
ENDTAB
  0
TABLE
  2
DIMSTYLE
  5
78
330
0
100
AcDbSymbolTable
 70
     2
  0
DIMSTYLE
105
79
330
78
100
AcDbSymbolTableRecord
100
AcDbDimStyleTableRecord
  2
STANDARD
 70
     0
  3

  4

  5

  6

  7

 40
0.0
 41
2.5
 42
0.625
 43
3.75
 44
1.25
 45
0.0
 46
0.0
 47
0.0
 48
0.0
140
2.5
141
2.5
142
0.0
143
0.03937007874016
144
1.0
145
0.0
146
1.0
147
0.625
 71
     0
 72
     0
 73
     0
 74
     0
 75
     0
 76
     0
 77
     1
 78
     8
170
     0
171
     3
172
     1
173
     0
174
     0
175
     0
176
     0
177
     0
178
     0
270
     2
271
     2
272
     2
273
     2
274
     3
340
71
275
     0
280
     0
281
     0
282
     0
283
     0
284
     8
285
     0
286
     0
287
     3
288
     0
  0
ENDTAB
  0
TABLE
  2
BLOCK_RECORD
  5
A01
330
0
100
AcDbSymbolTable
  70
5
  0
BLOCK_RECORD
  5
A02
330
A01
100
AcDbSymbolTableRecord
100
AcDbBlockTableRecord
  2
*MODEL_SPACE
  0
BLOCK_RECORD
  5
A03
330
A01
100
AcDbSymbolTableRecord
100
AcDbBlockTableRecord
  2
*PAPER_SPACE
  0
BLOCK_RECORD
  5
A4D
330
A01
100
AcDbSymbolTableRecord
100
AcDbBlockTableRecord
  2
*Dimension002
  0
BLOCK_RECORD
  5
A57
330
A01
100
AcDbSymbolTableRecord
100
AcDbBlockTableRecord
  2
*Dimension003
  0
BLOCK_RECORD
  5
A61
330
A01
100
AcDbSymbolTableRecord
100
AcDbBlockTableRecord
  2
*Dimension004
  0
BLOCK_RECORD
  5
A6B
330
A01
100
AcDbSymbolTableRecord
100
AcDbBlockTableRecord
  2
*Dimension
  0
BLOCK_RECORD
  5
A75
330
A01
100
AcDbSymbolTableRecord
100
AcDbBlockTableRecord
  2
*Dimension005
  0
BLOCK_RECORD
  5
A7F
330
A01
100
AcDbSymbolTableRecord
100
AcDbBlockTableRecord
  2
*Dimension007
  0
BLOCK_RECORD
  5
A89
330
A01
100
AcDbSymbolTableRecord
100
AcDbBlockTableRecord
  2
*Dimension008
  0
BLOCK_RECORD
  5
A93
330
A01
100
AcDbSymbolTableRecord
100
AcDbBlockTableRecord
  2
*Dimension009
  0
ENDTAB
  0
ENDSEC
  0
SECTION
  2
BLOCKS
  0
BLOCK
  5
A04
330
A02
100
AcDbEntity
  8
0
100
AcDbBlockBegin
  2
*MODEL_SPACE
 70
   0
 10
0
 20
0
 30
0
  3
*MODEL_SPACE
  1
 
  0
ENDBLK
  5
A05
330
A02
100
AcDbEntity
  8
0
100
AcDbBlockEnd
  0
BLOCK
  5
A06
330
A03
100
AcDbEntity
 67
1
  8
0
100
AcDbBlockBegin
  2
*PAPER_SPACE
 70
   0
 10
0
 20
0
 30
0
  3
*PAPER_SPACE
  1
 
  0
ENDBLK
  5
A07
330
A03
100
AcDbEntity
 67
    1
  8
0
100
AcDbBlockEnd
  0
BLOCK
  5
A4E
330
A4D
100
AcDbEntity
  8
Dimension002
100
AcDbBlockBegin
  2
*Dimension002
 70
   1
 10
0
 20
0
 30
0
  3
*Dimension002
  1
 
  0
LINE
  5
A4F
330
A4D
100
AcDbEntity
  8
Dimension002
100
AcDbLine
 10
79.1121
 20
119.609
 30
0
 11
79.1121
 21
123.06
 31
0
  0
LINE
  5
A50
330
A4D
100
AcDbEntity
  8
Dimension002
100
AcDbLine
 10
50.5371
 20
119.609
 30
0
 11
50.5371
 21
123.06
 31
0
  0
LINE
  5
A51
330
A4D
100
AcDbEntity
  8
Dimension002
100
AcDbLine
 10
50.5371
 20
123.06
 30
0
 11
79.1121
 21
123.06
 31
0
  0
TEXT
  5
A52
330
A4D
100
AcDbEntity
  8
Dimension002
100
AcDbText
 10
30.2093
 20
128.06
 30
0
 40
3.5
  1
 mm
  7
STANDARD
 72
1
 11
30.2093
 21
123.06
 31
0
100
AcDbText
  0
SOLID
  5
A53
330
A4D
100
AcDbEntity
  8
0
 62
     0
100
AcDbTrace
 10
45.5371
 20
123.477
 30
0
 11
45.5371
 21
122.643
 31
0
 12
50.5371
 22
123.06
 32
0
 13
50.5371
 23
123.06
 33
0
  0
SOLID
  5
A54
330
A4D
100
AcDbEntity
  8
0
 62
     0
100
AcDbTrace
 10
84.1121
 20
123.477
 30
0
 11
84.1121
 21
122.643
 31
0
 12
79.1121
 22
123.06
 32
0
 13
79.1121
 23
123.06
 33
0
  0
ENDBLK
  5
A55
330
A4D
100
AcDbEntity
  8
Dimension002
100
AcDbBlockEnd
  0
BLOCK
  5
A58
330
A57
100
AcDbEntity
  8
Dimension003
100
AcDbBlockBegin
  2
*Dimension003
 70
   1
 10
0
 20
0
 30
0
  3
*Dimension003
  1
 
  0
LINE
  5
A59
330
A57
100
AcDbEntity
  8
Dimension003
100
AcDbLine
 10
82.9671
 20
175.049
 30
0
 11
82.9671
 21
155.032
 31
0
  0
LINE
  5
A5A
330
A57
100
AcDbEntity
  8
Dimension003
100
AcDbLine
 10
46.6821
 20
175.049
 30
0
 11
46.6821
 21
155.032
 31
0
  0
LINE
  5
A5B
330
A57
100
AcDbEntity
  8
Dimension003
100
AcDbLine
 10
46.6821
 20
155.032
 30
0
 11
82.9671
 21
155.032
 31
0
  0
TEXT
  5
A5C
330
A57
100
AcDbEntity
  8
Dimension003
100
AcDbText
 10
63.4698
 20
160.032
 30
0
 40
3.5
  1
 mm
  7
STANDARD
 72
1
 11
63.4698
 21
155.032
 31
0
100
AcDbText
  0
SOLID
  5
A5D
330
A57
100
AcDbEntity
  8
0
 62
     0
100
AcDbTrace
 10
41.6821
 20
154.615
 30
0
 11
41.6821
 21
155.448
 31
0
 12
46.6821
 22
155.032
 32
0
 13
46.6821
 23
155.032
 33
0
  0
SOLID
  5
A5E
330
A57
100
AcDbEntity
  8
0
 62
     0
100
AcDbTrace
 10
87.9671
 20
154.615
 30
0
 11
87.9671
 21
155.448
 31
0
 12
82.9671
 22
155.032
 32
0
 13
82.9671
 23
155.032
 33
0
  0
ENDBLK
  5
A5F
330
A57
100
AcDbEntity
  8
Dimension003
100
AcDbBlockEnd
  0
BLOCK
  5
A62
330
A61
100
AcDbEntity
  8
Dimension004
100
AcDbBlockBegin
  2
*Dimension004
 70
   1
 10
0
 20
0
 30
0
  3
*Dimension004
  1
 
  0
LINE
  5
A63
330
A61
100
AcDbEntity
  8
Dimension004
100
AcDbLine
 10
46.6821
 20
175.049
 30
0
 11
46.6821
 21
182.929
 31
0
  0
LINE
  5
A64
330
A61
100
AcDbEntity
  8
Dimension004
100
AcDbLine
 10
43.5996
 20
175.049
 30
0
 11
43.5996
 21
182.929
 31
0
  0
LINE
  5
A65
330
A61
100
AcDbEntity
  8
Dimension004
100
AcDbLine
 10
43.5996
 20
182.929
 30
0
 11
46.6821
 21
182.929
 31
0
  0
TEXT
  5
A66
330
A61
100
AcDbEntity
  8
Dimension004
100
AcDbText
 10
56.132
 20
187.929
 30
0
 40
3.5
  1
 mm
  7
STANDARD
 72
1
 11
56.132
 21
182.929
 31
0
100
AcDbText
  0
SOLID
  5
A67
330
A61
100
AcDbEntity
  8
0
 62
     0
100
AcDbTrace
 10
38.5996
 20
183.346
 30
0
 11
38.5996
 21
182.513
 31
0
 12
43.5996
 22
182.929
 32
0
 13
43.5996
 23
182.929
 33
0
  0
SOLID
  5
A68
330
A61
100
AcDbEntity
  8
0
 62
     0
100
AcDbTrace
 10
51.6821
 20
183.346
 30
0
 11
51.6821
 21
182.513
 31
0
 12
46.6821
 22
182.929
 32
0
 13
46.6821
 23
182.929
 33
0
  0
ENDBLK
  5
A69
330
A61
100
AcDbEntity
  8
Dimension004
100
AcDbBlockEnd
  0
BLOCK
  5
A6C
330
A6B
100
AcDbEntity
  8
Dimension
100
AcDbBlockBegin
  2
*Dimension
 70
   1
 10
0
 20
0
 30
0
  3
*Dimension
  1
 
  0
LINE
  5
A6D
330
A6B
100
AcDbEntity
  8
Dimension
100
AcDbLine
 10
187.711
 20
177.566
 30
0
 11
187.711
 21
182.587
 31
0
  0
LINE
  5
A6E
330
A6B
100
AcDbEntity
  8
Dimension
100
AcDbLine
 10
145.261
 20
177.566
 30
0
 11
145.261
 21
182.587
 31
0
  0
LINE
  5
A6F
330
A6B
100
AcDbEntity
  8
Dimension
100
AcDbLine
 10
145.261
 20
182.587
 30
0
 11
187.711
 21
182.587
 31
0
  0
TEXT
  5
A70
330
A6B
100
AcDbEntity
  8
Dimension
100
AcDbText
 10
164.967
 20
187.587
 30
0
 40
3.5
  1
 mm
  7
STANDARD
 72
1
 11
164.967
 21
182.587
 31
0
100
AcDbText
  0
SOLID
  5
A71
330
A6B
100
AcDbEntity
  8
0
 62
     0
100
AcDbTrace
 10
140.261
 20
183.004
 30
0
 11
140.261
 21
182.171
 31
0
 12
145.261
 22
182.587
 32
0
 13
145.261
 23
182.587
 33
0
  0
SOLID
  5
A72
330
A6B
100
AcDbEntity
  8
0
 62
     0
100
AcDbTrace
 10
192.711
 20
183.004
 30
0
 11
192.711
 21
182.171
 31
0
 12
187.711
 22
182.587
 32
0
 13
187.711
 23
182.587
 33
0
  0
ENDBLK
  5
A73
330
A6B
100
AcDbEntity
  8
Dimension
100
AcDbBlockEnd
  0
BLOCK
  5
A76
330
A75
100
AcDbEntity
  8
Dimension005
100
AcDbBlockBegin
  2
*Dimension005
 70
   1
 10
0
 20
0
 30
0
  3
*Dimension005
  1
 
  0
LINE
  5
A77
330
A75
100
AcDbEntity
  8
Dimension005
100
AcDbLine
 10
184.699
 20
122.126
 30
0
 11
209.772
 21
122.126
 31
0
  0
LINE
  5
A78
330
A75
100
AcDbEntity
  8
Dimension005
100
AcDbLine
 10
187.711
 20
177.566
 30
0
 11
209.772
 21
177.566
 31
0
  0
LINE
  5
A79
330
A75
100
AcDbEntity
  8
Dimension005
100
AcDbLine
 10
209.772
 20
177.566
 30
0
 11
209.772
 21
122.126
 31
0
  0
TEXT
  5
A7A
330
A75
100
AcDbEntity
  8
Dimension005
100
AcDbText
 10
204.779
 20
153.172
 30
0
 40
3.5
  1
 mm
  7
STANDARD
 72
1
 11
209.772
 21
153.443
 31
0
100
AcDbText
  0
SOLID
  5
A7B
330
A75
100
AcDbEntity
  8
0
 62
     0
100
AcDbTrace
 10
210.189
 20
182.566
 30
0
 11
209.355
 21
182.566
 31
0
 12
209.772
 22
177.566
 32
0
 13
209.772
 23
177.566
 33
0
  0
SOLID
  5
A7C
330
A75
100
AcDbEntity
  8
0
 62
     0
100
AcDbTrace
 10
210.189
 20
117.126
 30
0
 11
209.355
 21
117.126
 31
0
 12
209.772
 22
122.126
 32
0
 13
209.772
 23
122.126
 33
0
  0
ENDBLK
  5
A7D
330
A75
100
AcDbEntity
  8
Dimension005
100
AcDbBlockEnd
  0
BLOCK
  5
A80
330
A7F
100
AcDbEntity
  8
Dimension007
100
AcDbBlockBegin
  2
*Dimension007
 70
   1
 10
0
 20
0
 30
0
  3
*Dimension007
  1
 
  0
LINE
  5
A81
330
A7F
100
AcDbEntity
  8
Dimension007
100
AcDbLine
 10
184.699
 20
122.126
 30
0
 11
184.699
 21
120.175
 31
0
  0
LINE
  5
A82
330
A7F
100
AcDbEntity
  8
Dimension007
100
AcDbLine
 10
148.272
 20
122.126
 30
0
 11
148.272
 21
120.175
 31
0
  0
LINE
  5
A83
330
A7F
100
AcDbEntity
  8
Dimension007
100
AcDbLine
 10
148.272
 20
120.175
 30
0
 11
184.699
 21
120.175
 31
0
  0
TEXT
  5
A84
330
A7F
100
AcDbEntity
  8
Dimension007
100
AcDbText
 10
115.476
 20
125.175
 30
0
 40
3.5
  1
 mm
  7
STANDARD
 72
1
 11
115.476
 21
120.175
 31
0
100
AcDbText
  0
SOLID
  5
A85
330
A7F
100
AcDbEntity
  8
0
 62
     0
100
AcDbTrace
 10
143.272
 20
119.758
 30
0
 11
143.272
 21
120.592
 31
0
 12
148.272
 22
120.175
 32
0
 13
148.272
 23
120.175
 33
0
  0
SOLID
  5
A86
330
A7F
100
AcDbEntity
  8
0
 62
     0
100
AcDbTrace
 10
189.699
 20
119.758
 30
0
 11
189.699
 21
120.592
 31
0
 12
184.699
 22
120.175
 32
0
 13
184.699
 23
120.175
 33
0
  0
ENDBLK
  5
A87
330
A7F
100
AcDbEntity
  8
Dimension007
100
AcDbBlockEnd
  0
BLOCK
  5
A8A
330
A89
100
AcDbEntity
  8
Dimension008
100
AcDbBlockBegin
  2
*Dimension008
 70
   1
 10
0
 20
0
 30
0
  3
*Dimension008
  1
 
  0
LINE
  5
A8B
330
A89
100
AcDbEntity
  8
Dimension008
100
AcDbLine
 10
148.272
 20
122.126
 30
0
 11
202.064
 21
122.126
 31
0
  0
LINE
  5
A8C
330
A89
100
AcDbEntity
  8
Dimension008
100
AcDbLine
 10
148.272
 20
129.626
 30
0
 11
202.064
 21
129.626
 31
0
  0
LINE
  5
A8D
330
A89
100
AcDbEntity
  8
Dimension008
100
AcDbLine
 10
202.064
 20
129.626
 30
0
 11
202.064
 21
122.126
 31
0
  0
TEXT
  5
A8E
330
A89
100
AcDbEntity
  8
Dimension008
100
AcDbText
 10
197.064
 20
137.796
 30
0
 40
3.5
  1
 mm
  7
STANDARD
 72
1
 11
202.064
 21
137.796
 31
0
100
AcDbText
  0
SOLID
  5
A8F
330
A89
100
AcDbEntity
  8
0
 62
     0
100
AcDbTrace
 10
202.481
 20
134.626
 30
0
 11
201.647
 21
134.626
 31
0
 12
202.064
 22
129.626
 32
0
 13
202.064
 23
129.626
 33
0
  0
SOLID
  5
A90
330
A89
100
AcDbEntity
  8
0
 62
     0
100
AcDbTrace
 10
202.481
 20
117.126
 30
0
 11
201.647
 21
117.126
 31
0
 12
202.064
 22
122.126
 32
0
 13
202.064
 23
122.126
 33
0
  0
ENDBLK
  5
A91
330
A89
100
AcDbEntity
  8
Dimension008
100
AcDbBlockEnd
  0
BLOCK
  5
A94
330
A93
100
AcDbEntity
  8
Dimension009
100
AcDbBlockBegin
  2
*Dimension009
 70
   1
 10
0
 20
0
 30
0
  3
*Dimension009
  1
 
  0
LINE
  5
A95
330
A93
100
AcDbEntity
  8
Dimension009
100
AcDbLine
 10
82.9671
 20
133.274
 30
0
 11
97.1156
 21
133.274
 31
0
  0
LINE
  5
A96
330
A93
100
AcDbEntity
  8
Dimension009
100
AcDbLine
 10
82.9671
 20
175.049
 30
0
 11
97.1156
 21
175.049
 31
0
  0
LINE
  5
A97
330
A93
100
AcDbEntity
  8
Dimension009
100
AcDbLine
 10
97.1156
 20
175.049
 30
0
 11
97.1156
 21
133.274
 31
0
  0
TEXT
  5
A98
330
A93
100
AcDbEntity
  8
Dimension009
100
AcDbText
 10
92.1156
 20
155.27
 30
0
 40
3.5
  1
 mm
  7
STANDARD
 72
1
 11
97.1156
 21
155.27
 31
0
100
AcDbText
  0
SOLID
  5
A99
330
A93
100
AcDbEntity
  8
0
 62
     0
100
AcDbTrace
 10
97.5323
 20
180.049
 30
0
 11
96.6989
 21
180.049
 31
0
 12
97.1156
 22
175.049
 32
0
 13
97.1156
 23
175.049
 33
0
  0
SOLID
  5
A9A
330
A93
100
AcDbEntity
  8
0
 62
     0
100
AcDbTrace
 10
97.5323
 20
128.274
 30
0
 11
96.6989
 21
128.274
 31
0
 12
97.1156
 22
133.274
 32
0
 13
97.1156
 23
133.274
 33
0
  0
ENDBLK
  5
A9B
330
A93
100
AcDbEntity
  8
Dimension009
100
AcDbBlockEnd
  0
ENDSEC
  0
SECTION
  2
ENTITIES
  0
SPLINE
  5
A08
330
A02
100
AcDbEntity
  8
ProjItem
100
AcDbSpline
210
0
220
0
230
1
 70
8
 71
1
 72
17
 73
15
 74
0
 40
0
 40
0
 40
0.224399
 40
0.448799
 40
0.673198
 40
0.897598
 40
1.122
 40
1.3464
 40
1.5708
 40
1.7952
 40
2.0196
 40
2.24399
 40
2.46839
 40
2.69279
 40
2.91719
 40
3.14159
 40
3.14159
 10
148.272
 20
129.626
 30
0
 10
148.729
 20
129.626
 30
0
 10
150.076
 20
129.626
 30
0
 10
152.246
 20
129.626
 30
0
 10
155.13
 20
129.626
 30
0
 10
158.583
 20
129.626
 30
0
 10
162.433
 20
129.626
 30
0
 10
166.486
 20
129.626
 30
0
 10
170.539
 20
129.626
 30
0
 10
174.388
 20
129.626
 30
0
 10
177.842
 20
129.626
 30
0
 10
180.726
 20
129.626
 30
0
 10
182.896
 20
129.626
 30
0
 10
184.243
 20
129.626
 30
0
 10
184.699
 20
129.626
 30
0
  0
LINE
  5
A09
330
A02
100
AcDbEntity
  8
ProjItem
100
AcDbLine
 10
148.272
 20
129.626
 30
0
 11
148.272
 21
131.958
 31
0
  0
SPLINE
  5
A0A
330
A02
100
AcDbEntity
  8
ProjItem
100
AcDbSpline
210
0
220
0
230
1
 70
8
 71
1
 72
17
 73
15
 74
0
 40
0
 40
0
 40
0.224399
 40
0.448799
 40
0.673198
 40
0.897598
 40
1.122
 40
1.3464
 40
1.5708
 40
1.7952
 40
2.0196
 40
2.24399
 40
2.46839
 40
2.69279
 40
2.91719
 40
3.14159
 40
3.14159
 10
148.272
 20
131.958
 30
0
 10
148.729
 20
131.958
 30
0
 10
150.076
 20
131.958
 30
0
 10
152.246
 20
131.958
 30
0
 10
155.13
 20
131.958
 30
0
 10
158.583
 20
131.958
 30
0
 10
162.433
 20
131.958
 30
0
 10
166.486
 20
131.958
 30
0
 10
170.539
 20
131.958
 30
0
 10
174.388
 20
131.958
 30
0
 10
177.842
 20
131.958
 30
0
 10
180.726
 20
131.958
 30
0
 10
182.896
 20
131.958
 30
0
 10
184.243
 20
131.958
 30
0
 10
184.699
 20
131.958
 30
0
  0
LINE
  5
A0B
330
A02
100
AcDbEntity
  8
ProjItem
100
AcDbLine
 10
148.272
 20
129.626
 30
0
 11
148.272
 21
122.126
 31
0
  0
SPLINE
  5
A0C
330
A02
100
AcDbEntity
  8
ProjItem
100
AcDbSpline
210
0
220
0
230
1
 70
8
 71
1
 72
17
 73
15
 74
0
 40
0
 40
0
 40
0.224399
 40
0.448799
 40
0.673198
 40
0.897598
 40
1.122
 40
1.3464
 40
1.5708
 40
1.7952
 40
2.0196
 40
2.24399
 40
2.46839
 40
2.69279
 40
2.91719
 40
3.14159
 40
3.14159
 10
148.272
 20
122.126
 30
0
 10
148.729
 20
122.126
 30
0
 10
150.076
 20
122.126
 30
0
 10
152.246
 20
122.126
 30
0
 10
155.13
 20
122.126
 30
0
 10
158.583
 20
122.126
 30
0
 10
162.433
 20
122.126
 30
0
 10
166.486
 20
122.126
 30
0
 10
170.539
 20
122.126
 30
0
 10
174.388
 20
122.126
 30
0
 10
177.842
 20
122.126
 30
0
 10
180.726
 20
122.126
 30
0
 10
182.896
 20
122.126
 30
0
 10
184.243
 20
122.126
 30
0
 10
184.699
 20
122.126
 30
0
  0
LINE
  5
A0D
330
A02
100
AcDbEntity
  8
ProjItem
100
AcDbLine
 10
148.272
 20
131.958
 30
0
 11
147.378
 21
132.708
 31
0
  0
SPLINE
  5
A0E
330
A02
100
AcDbEntity
  8
ProjItem
100
AcDbSpline
210
0
220
0
230
1
 70
8
 71
1
 72
17
 73
15
 74
0
 40
0
 40
0
 40
0.224399
 40
0.448799
 40
0.673198
 40
0.897598
 40
1.122
 40
1.3464
 40
1.5708
 40
1.7952
 40
2.0196
 40
2.24399
 40
2.46839
 40
2.69279
 40
2.91719
 40
3.14159
 40
3.14159
 10
145.261
 20
132.708
 30
0
 10
145.793
 20
132.708
 30
0
 10
147.363
 20
132.708
 30
0
 10
149.891
 20
132.708
 30
0
 10
153.252
 20
132.708
 30
0
 10
157.277
 20
132.708
 30
0
 10
161.763
 20
132.708
 30
0
 10
166.486
 20
132.708
 30
0
 10
171.209
 20
132.708
 30
0
 10
175.695
 20
132.708
 30
0
 10
179.719
 20
132.708
 30
0
 10
183.08
 20
132.708
 30
0
 10
185.609
 20
132.708
 30
0
 10
187.179
 20
132.708
 30
0
 10
187.711
 20
132.708
 30
0
  0
SPLINE
  5
A0F
330
A02
100
AcDbEntity
  8
ProjItem
100
AcDbSpline
210
0
220
0
230
1
 70
8
 71
1
 72
17
 73
15
 74
0
 40
0
 40
0
 40
0.224399
 40
0.448799
 40
0.673198
 40
0.897598
 40
1.122
 40
1.3464
 40
1.5708
 40
1.7952
 40
2.0196
 40
2.24399
 40
2.46839
 40
2.69279
 40
2.91719
 40
3.14159
 40
3.14159
 10
145.261
 20
177.566
 30
0
 10
145.793
 20
177.566
 30
0
 10
147.363
 20
177.566
 30
0
 10
149.891
 20
177.566
 30
0
 10
153.252
 20
177.566
 30
0
 10
157.277
 20
177.566
 30
0
 10
161.763
 20
177.566
 30
0
 10
166.486
 20
177.566
 30
0
 10
171.209
 20
177.566
 30
0
 10
175.695
 20
177.566
 30
0
 10
179.719
 20
177.566
 30
0
 10
183.08
 20
177.566
 30
0
 10
185.609
 20
177.566
 30
0
 10
187.179
 20
177.566
 30
0
 10
187.711
 20
177.566
 30
0
  0
LINE
  5
A10
330
A02
100
AcDbEntity
  8
ProjItem
100
AcDbLine
 10
145.261
 20
132.708
 30
0
 11
145.261
 21
177.566
 31
0
  0
LINE
  5
A11
330
A02
100
AcDbEntity
  8
ProjItem
100
AcDbLine
 10
184.699
 20
129.626
 30
0
 11
184.699
 21
131.958
 31
0
  0
LINE
  5
A12
330
A02
100
AcDbEntity
  8
ProjItem
100
AcDbLine
 10
184.699
 20
122.126
 30
0
 11
184.699
 21
129.626
 31
0
  0
LINE
  5
A13
330
A02
100
AcDbEntity
  8
ProjItem
100
AcDbLine
 10
184.699
 20
131.958
 30
0
 11
185.593
 21
132.708
 31
0
  0
LINE
  5
A14
330
A02
100
AcDbEntity
  8
ProjItem
100
AcDbLine
 10
187.711
 20
132.708
 30
0
 11
187.711
 21
177.566
 31
0
  0
ELLIPSE
  5
A15
330
A02
100
AcDbEntity
  8
ProjItem001
100
AcDbEllipse
 10
260.293
 20
135.638
 30
0
 11
18.2138
 21
-2.92899e-15
 31
0
 40
0.57735
 41
3.92699
 42
5.60396
  0
ELLIPSE
  5
A16
330
A02
100
AcDbEntity
  8
ProjItem001
100
AcDbEllipse
 10
260.293
 20
135.638
 30
0
 11
18.2138
 21
-2.92899e-15
 31
0
 40
0.57735
 41
3.82082
 42
3.92699
  0
ELLIPSE
  5
A17
330
A02
100
AcDbEntity
  8
ProjItem001
100
AcDbEllipse
 10
260.293
 20
129.514
 30
0
 11
18.2138
 21
-2.92899e-15
 31
0
 40
0.57735
 41
3.92699
 42
0
  0
ELLIPSE
  5
A18
330
A02
100
AcDbEntity
  8
ProjItem001
100
AcDbEllipse
 10
260.293
 20
129.514
 30
0
 11
18.2138
 21
-2.92899e-15
 31
0
 40
0.57735
 41
3.14159
 42
3.92699
  0
ELLIPSE
  5
A19
330
A02
100
AcDbEntity
  8
ProjItem001
100
AcDbEllipse
 10
260.293
 20
138.155
 30
0
 11
21.225
 21
-3.41324e-15
 31
0
 40
0.57735
 41
3.92699
 42
0
  0
ELLIPSE
  5
A1A
330
A02
100
AcDbEntity
  8
ProjItem001
100
AcDbEllipse
 10
260.293
 20
138.155
 30
0
 11
21.225
 21
-3.41324e-15
 31
0
 40
0.57735
 41
3.14159
 42
3.92699
  0
ELLIPSE
  5
A1B
330
A02
100
AcDbEntity
  8
ProjItem001
100
AcDbEllipse
 10
260.293
 20
174.781
 30
0
 11
21.225
 21
-3.41324e-15
 31
0
 40
0.57735
 41
3.92699
 42
0
  0
ELLIPSE
  5
A1C
330
A02
100
AcDbEntity
  8
ProjItem001
100
AcDbEllipse
 10
260.293
 20
174.781
 30
0
 11
21.225
 21
-3.41324e-15
 31
0
 40
0.57735
 41
0
 42
3.14159
  0
ELLIPSE
  5
A1D
330
A02
100
AcDbEntity
  8
ProjItem001
100
AcDbEllipse
 10
260.293
 20
174.781
 30
0
 11
21.225
 21
-3.41324e-15
 31
0
 40
0.57735
 41
3.14159
 42
3.92699
  0
ELLIPSE
  5
A1E
330
A02
100
AcDbEntity
  8
ProjItem001
100
AcDbEllipse
 10
260.293
 20
174.781
 30
0
 11
18.1425
 21
-2.91754e-15
 31
0
 40
0.57735
 41
3.92699
 42
0
  0
ELLIPSE
  5
A1F
330
A02
100
AcDbEntity
  8
ProjItem001
100
AcDbEllipse
 10
260.293
 20
174.781
 30
0
 11
18.1425
 21
-2.91754e-15
 31
0
 40
0.57735
 41
0
 42
3.14159
  0
ELLIPSE
  5
A20
330
A02
100
AcDbEntity
  8
ProjItem001
100
AcDbEllipse
 10
260.293
 20
174.781
 30
0
 11
18.1425
 21
-2.91754e-15
 31
0
 40
0.57735
 41
3.14159
 42
3.92699
  0
LINE
  5
A21
330
A02
100
AcDbEntity
  8
ProjItem001
100
AcDbLine
 10
278.507
 20
129.514
 30
0
 11
278.507
 21
131.863
 31
0
  0
LINE
  5
A22
330
A02
100
AcDbEntity
  8
ProjItem001
100
AcDbLine
 10
242.08
 20
129.514
 30
0
 11
242.08
 21
131.863
 31
0
  0
LINE
  5
A23
330
A02
100
AcDbEntity
  8
ProjItem001
100
AcDbLine
 10
281.518
 20
138.155
 30
0
 11
281.518
 21
174.781
 31
0
  0
LINE
  5
A24
330
A02
100
AcDbEntity
  8
ProjItem001
100
AcDbLine
 10
239.068
 20
138.155
 30
0
 11
239.068
 21
174.781
 31
0
  0
LINE
  5
A25
330
A02
100
AcDbEntity
  8
ProjItem001
100
AcDbLine
 10
247.414
 20
128.202
 30
0
 11
247.414
 21
128.414
 31
0
  0
LINE
  5
A26
330
A02
100
AcDbEntity
  8
ProjItem001
100
AcDbLine
 10
247.414
 20
128.202
 30
0
 11
247.414
 21
122.079
 31
0
  0
LINE
  5
A27
330
A02
100
AcDbEntity
  8
ProjItem001
100
AcDbLine
 10
245.285
 20
129.49
 30
0
 11
245.285
 21
166.116
 31
0
  0
CIRCLE
  5
A28
330
A02
100
AcDbEntity
  8
ProjItem002
100
AcDbCircle
 10
166.486
 20
82.0058
 40
21.225
  0
CIRCLE
  5
A29
330
A02
100
AcDbEntity
  8
ProjItem002
100
AcDbCircle
 10
166.486
 20
82.0058
 40
14.2875
  0
CIRCLE
  5
A2A
330
A02
100
AcDbEntity
  8
ProjItem002
100
AcDbCircle
 10
166.486
 20
82.0058
 40
18.1425
  0
CIRCLE
  5
A2B
330
A02
100
AcDbEntity
  8
ProjItem002
100
AcDbCircle
 10
166.486
 20
82.0058
 40
17.8628
  0
LINE
  5
A2C
330
A02
100
AcDbEntity
  8
ProjItem002
100
AcDbLine
 10
152.198
 20
82.0058
 30
0
 11
148.623
 21
82.0058
 31
0
  0
LINE
  5
A2D
330
A02
100
AcDbEntity
  8
SectionView
100
AcDbLine
 10
83.0383
 20
127.109
 30
0
 11
83.0383
 21
129.441
 31
0
  0
LINE
  5
A2E
330
A02
100
AcDbEntity
  8
SectionView
100
AcDbLine
 10
46.6108
 20
127.109
 30
0
 11
46.6108
 21
129.441
 31
0
  0
LINE
  5
A2F
330
A02
100
AcDbEntity
  8
SectionView
100
AcDbLine
 10
46.6108
 20
127.109
 30
0
 11
46.6108
 21
119.609
 31
0
  0
LINE
  5
A30
330
A02
100
AcDbEntity
  8
SectionView
100
AcDbLine
 10
83.0383
 20
119.609
 30
0
 11
83.0383
 21
127.109
 31
0
  0
LINE
  5
A31
330
A02
100
AcDbEntity
  8
SectionView
100
AcDbLine
 10
83.0383
 20
119.609
 30
0
 11
79.1121
 21
119.609
 31
0
  0
LINE
  5
A32
330
A02
100
AcDbEntity
  8
SectionView
100
AcDbLine
 10
79.1121
 20
119.609
 30
0
 11
79.1121
 21
127.109
 31
0
  0
LINE
  5
A33
330
A02
100
AcDbEntity
  8
SectionView
100
AcDbLine
 10
79.1121
 20
127.109
 30
0
 11
79.1121
 21
130.274
 31
0
  0
LINE
  5
A34
330
A02
100
AcDbEntity
  8
SectionView
100
AcDbLine
 10
79.1121
 20
130.274
 30
0
 11
82.6873
 21
133.274
 31
0
  0
LINE
  5
A35
330
A02
100
AcDbEntity
  8
SectionView
100
AcDbLine
 10
82.9671
 20
133.274
 30
0
 11
82.6873
 21
133.274
 31
0
  0
LINE
  5
A36
330
A02
100
AcDbEntity
  8
SectionView
100
AcDbLine
 10
82.9671
 20
133.274
 30
0
 11
82.9671
 21
175.049
 31
0
  0
LINE
  5
A37
330
A02
100
AcDbEntity
  8
SectionView
100
AcDbLine
 10
82.9671
 20
175.049
 30
0
 11
86.0496
 21
175.049
 31
0
  0
LINE
  5
A38
330
A02
100
AcDbEntity
  8
SectionView
100
AcDbLine
 10
86.0496
 20
130.191
 30
0
 11
86.0496
 21
175.049
 31
0
  0
LINE
  5
A39
330
A02
100
AcDbEntity
  8
SectionView
100
AcDbLine
 10
83.9321
 20
130.191
 30
0
 11
86.0496
 21
130.191
 31
0
  0
LINE
  5
A3A
330
A02
100
AcDbEntity
  8
SectionView
100
AcDbLine
 10
83.0383
 20
129.441
 30
0
 11
83.9321
 21
130.191
 31
0
  0
LINE
  5
A3B
330
A02
100
AcDbEntity
  8
SectionView
100
AcDbLine
 10
46.6108
 20
129.441
 30
0
 11
45.717
 21
130.191
 31
0
  0
LINE
  5
A3C
330
A02
100
AcDbEntity
  8
SectionView
100
AcDbLine
 10
43.5996
 20
130.191
 30
0
 11
45.717
 21
130.191
 31
0
  0
LINE
  5
A3D
330
A02
100
AcDbEntity
  8
SectionView
100
AcDbLine
 10
43.5996
 20
130.191
 30
0
 11
43.5996
 21
175.049
 31
0
  0
LINE
  5
A3E
330
A02
100
AcDbEntity
  8
SectionView
100
AcDbLine
 10
43.5996
 20
175.049
 30
0
 11
46.6821
 21
175.049
 31
0
  0
LINE
  5
A3F
330
A02
100
AcDbEntity
  8
SectionView
100
AcDbLine
 10
46.6821
 20
133.274
 30
0
 11
46.6821
 21
175.049
 31
0
  0
LINE
  5
A40
330
A02
100
AcDbEntity
  8
SectionView
100
AcDbLine
 10
46.9618
 20
133.274
 30
0
 11
46.6821
 21
133.274
 31
0
  0
LINE
  5
A41
330
A02
100
AcDbEntity
  8
SectionView
100
AcDbLine
 10
50.5371
 20
130.274
 30
0
 11
46.9618
 21
133.274
 31
0
  0
LINE
  5
A42
330
A02
100
AcDbEntity
  8
SectionView
100
AcDbLine
 10
50.5371
 20
127.109
 30
0
 11
50.5371
 21
130.274
 31
0
  0
LINE
  5
A43
330
A02
100
AcDbEntity
  8
SectionView
100
AcDbLine
 10
50.5371
 20
127.109
 30
0
 11
50.5371
 21
119.609
 31
0
  0
LINE
  5
A44
330
A02
100
AcDbEntity
  8
SectionView
100
AcDbLine
 10
50.5371
 20
119.609
 30
0
 11
46.6108
 21
119.609
 31
0
  0
SPLINE
  5
A45
330
A02
100
AcDbEntity
  8
SectionView
100
AcDbSpline
210
0
220
0
230
1
 70
8
 71
1
 72
17
 73
15
 74
0
 40
3.14159
 40
3.14159
 40
3.36599
 40
3.59039
 40
3.81479
 40
4.03919
 40
4.26359
 40
4.48799
 40
4.71239
 40
4.93679
 40
5.16119
 40
5.38559
 40
5.60999
 40
5.83439
 40
6.05879
 40
6.28319
 40
6.28319
 10
79.1121
 20
119.609
 30
0
 10
78.7539
 20
119.609
 30
0
 10
77.6972
 20
119.609
 30
0
 10
75.995
 20
119.609
 30
0
 10
73.7327
 20
119.609
 30
0
 10
71.0237
 20
119.609
 30
0
 10
68.0038
 20
119.609
 30
0
 10
64.8246
 20
119.609
 30
0
 10
61.6453
 20
119.609
 30
0
 10
58.6255
 20
119.609
 30
0
 10
55.9165
 20
119.609
 30
0
 10
53.6542
 20
119.609
 30
0
 10
51.952
 20
119.609
 30
0
 10
50.8953
 20
119.609
 30
0
 10
50.5371
 20
119.609
 30
0
  0
SPLINE
  5
A46
330
A02
100
AcDbEntity
  8
SectionView
100
AcDbSpline
210
0
220
0
230
1
 70
8
 71
1
 72
17
 73
15
 74
0
 40
3.14159
 40
3.14159
 40
3.36599
 40
3.59039
 40
3.81479
 40
4.03919
 40
4.26359
 40
4.48799
 40
4.71239
 40
4.93679
 40
5.16119
 40
5.38559
 40
5.60999
 40
5.83439
 40
6.05879
 40
6.28319
 40
6.28319
 10
79.1121
 20
127.109
 30
0
 10
78.7539
 20
127.109
 30
0
 10
77.6972
 20
127.109
 30
0
 10
75.995
 20
127.109
 30
0
 10
73.7327
 20
127.109
 30
0
 10
71.0237
 20
127.109
 30
0
 10
68.0038
 20
127.109
 30
0
 10
64.8246
 20
127.109
 30
0
 10
61.6453
 20
127.109
 30
0
 10
58.6255
 20
127.109
 30
0
 10
55.9165
 20
127.109
 30
0
 10
53.6542
 20
127.109
 30
0
 10
51.952
 20
127.109
 30
0
 10
50.8953
 20
127.109
 30
0
 10
50.5371
 20
127.109
 30
0
  0
SPLINE
  5
A47
330
A02
100
AcDbEntity
  8
SectionView
100
AcDbSpline
210
0
220
0
230
1
 70
8
 71
1
 72
17
 73
15
 74
0
 40
3.14159
 40
3.14159
 40
3.36599
 40
3.59039
 40
3.81479
 40
4.03919
 40
4.26359
 40
4.48799
 40
4.71239
 40
4.93679
 40
5.16119
 40
5.38559
 40
5.60999
 40
5.83439
 40
6.05879
 40
6.28319
 40
6.28319
 10
79.1121
 20
130.274
 30
0
 10
78.7539
 20
130.274
 30
0
 10
77.6972
 20
130.274
 30
0
 10
75.995
 20
130.274
 30
0
 10
73.7327
 20
130.274
 30
0
 10
71.0237
 20
130.274
 30
0
 10
68.0038
 20
130.274
 30
0
 10
64.8246
 20
130.274
 30
0
 10
61.6453
 20
130.274
 30
0
 10
58.6255
 20
130.274
 30
0
 10
55.9165
 20
130.274
 30
0
 10
53.6542
 20
130.274
 30
0
 10
51.952
 20
130.274
 30
0
 10
50.8953
 20
130.274
 30
0
 10
50.5371
 20
130.274
 30
0
  0
SPLINE
  5
A48
330
A02
100
AcDbEntity
  8
SectionView
100
AcDbSpline
210
0
220
0
230
1
 70
8
 71
1
 72
17
 73
15
 74
0
 40
3.14159
 40
3.14159
 40
3.36599
 40
3.59039
 40
3.81479
 40
4.03919
 40
4.26359
 40
4.48799
 40
4.71239
 40
4.93679
 40
5.16119
 40
5.38559
 40
5.60999
 40
5.83439
 40
6.05879
 40
6.28319
 40
6.28319
 10
82.6873
 20
133.274
 30
0
 10
82.2395
 20
133.274
 30
0
 10
80.9184
 20
133.274
 30
0
 10
78.7902
 20
133.274
 30
0
 10
75.9618
 20
133.274
 30
0
 10
72.5749
 20
133.274
 30
0
 10
68.7994
 20
133.274
 30
0
 10
64.8246
 20
133.274
 30
0
 10
60.8497
 20
133.274
 30
0
 10
57.0742
 20
133.274
 30
0
 10
53.6873
 20
133.274
 30
0
 10
50.8589
 20
133.274
 30
0
 10
48.7308
 20
133.274
 30
0
 10
47.4097
 20
133.274
 30
0
 10
46.9618
 20
133.274
 30
0
  0
SPLINE
  5
A49
330
A02
100
AcDbEntity
  8
SectionView
100
AcDbSpline
210
0
220
0
230
1
 70
8
 71
1
 72
17
 73
15
 74
0
 40
3.14159
 40
3.14159
 40
3.36599
 40
3.59039
 40
3.81479
 40
4.03919
 40
4.26359
 40
4.48799
 40
4.71239
 40
4.93679
 40
5.16119
 40
5.38559
 40
5.60999
 40
5.83439
 40
6.05879
 40
6.28319
 40
6.28319
 10
82.9671
 20
175.049
 30
0
 10
82.5122
 20
175.049
 30
0
 10
81.1704
 20
175.049
 30
0
 10
79.009
 20
175.049
 30
0
 10
76.1362
 20
175.049
 30
0
 10
72.6963
 20
175.049
 30
0
 10
68.8617
 20
175.049
 30
0
 10
64.8246
 20
175.049
 30
0
 10
60.7875
 20
175.049
 30
0
 10
56.9528
 20
175.049
 30
0
 10
53.5129
 20
175.049
 30
0
 10
50.6402
 20
175.049
 30
0
 10
48.4788
 20
175.049
 30
0
 10
47.1369
 20
175.049
 30
0
 10
46.6821
 20
175.049
 30
0
  0
SPLINE
  5
A4A
330
A02
100
AcDbEntity
  8
SectionView
100
AcDbSpline
210
0
220
0
230
1
 70
8
 71
1
 72
17
 73
15
 74
0
 40
3.14159
 40
3.14159
 40
3.17377
 40
3.20595
 40
3.23812
 40
3.2703
 40
3.30248
 40
3.33466
 40
3.36683
 40
3.39901
 40
3.43119
 40
3.46336
 40
3.49554
 40
3.52772
 40
3.55989
 40
3.59207
 40
3.59207
 10
86.0496
 20
130.191
 30
0
 10
86.0386
 20
130.191
 30
0
 10
86.0056
 20
130.191
 30
0
 10
85.9508
 20
130.191
 30
0
 10
85.874
 20
130.191
 30
0
 10
85.7755
 20
130.191
 30
0
 10
85.6552
 20
130.191
 30
0
 10
85.5134
 20
130.191
 30
0
 10
85.3502
 20
130.191
 30
0
 10
85.1658
 20
130.191
 30
0
 10
84.9602
 20
130.191
 30
0
 10
84.7339
 20
130.191
 30
0
 10
84.4869
 20
130.191
 30
0
 10
84.2196
 20
130.191
 30
0
 10
83.9321
 20
130.191
 30
0
  0
SPLINE
  5
A4B
330
A02
100
AcDbEntity
  8
SectionView
100
AcDbSpline
210
0
220
0
230
1
 70
8
 71
1
 72
17
 73
15
 74
0
 40
5.83271
 40
5.83271
 40
5.86488
 40
5.89706
 40
5.92924
 40
5.96141
 40
5.99359
 40
6.02577
 40
6.05795
 40
6.09012
 40
6.1223
 40
6.15448
 40
6.18665
 40
6.21883
 40
6.25101
 40
6.28319
 40
6.28319
 10
45.717
 20
130.191
 30
0
 10
45.4296
 20
130.191
 30
0
 10
45.1623
 20
130.191
 30
0
 10
44.9153
 20
130.191
 30
0
 10
44.6889
 20
130.191
 30
0
 10
44.4834
 20
130.191
 30
0
 10
44.2989
 20
130.191
 30
0
 10
44.1357
 20
130.191
 30
0
 10
43.9939
 20
130.191
 30
0
 10
43.8737
 20
130.191
 30
0
 10
43.7751
 20
130.191
 30
0
 10
43.6984
 20
130.191
 30
0
 10
43.6435
 20
130.191
 30
0
 10
43.6106
 20
130.191
 30
0
 10
43.5996
 20
130.191
 30
0
  0
DIMENSION
  5
A4C
330
A02
100
AcDbEntity
  8
Dimension002
100
AcDbDimension
  2
*Dimension002
 10
30.2093
 20
123.06
 30
0
 11
30.2093
 21
128.06
 31
0
 70
32
  1
 mm
  3
STANDARD
100
AcDbAlignedDimension
 13
50.5371
 23
119.609
 33
0
 14
79.1121
 24
119.609
 34
0
100
AcDbRotatedDimension
  0
DIMENSION
  5
A56
330
A02
100
AcDbEntity
  8
Dimension003
100
AcDbDimension
  2
*Dimension003
 10
63.4698
 20
155.032
 30
0
 11
63.4698
 21
160.032
 31
0
 70
32
  1
 mm
  3
STANDARD
100
AcDbAlignedDimension
 13
46.6821
 23
175.049
 33
0
 14
82.9671
 24
175.049
 34
0
100
AcDbRotatedDimension
  0
DIMENSION
  5
A60
330
A02
100
AcDbEntity
  8
Dimension004
100
AcDbDimension
  2
*Dimension004
 10
56.132
 20
182.929
 30
0
 11
56.132
 21
187.929
 31
0
 70
32
  1
 mm
  3
STANDARD
100
AcDbAlignedDimension
 13
43.5996
 23
175.049
 33
0
 14
46.6821
 24
175.049
 34
0
100
AcDbRotatedDimension
  0
DIMENSION
  5
A6A
330
A02
100
AcDbEntity
  8
Dimension
100
AcDbDimension
  2
*Dimension
 10
164.967
 20
182.587
 30
0
 11
164.967
 21
187.587
 31
0
 70
32
  1
 mm
  3
STANDARD
100
AcDbAlignedDimension
 13
145.261
 23
177.566
 33
0
 14
187.711
 24
177.566
 34
0
100
AcDbRotatedDimension
  0
DIMENSION
  5
A74
330
A02
100
AcDbEntity
  8
Dimension005
100
AcDbDimension
  2
*Dimension005
 10
209.772
 20
153.443
 30
0
 11
204.779
 21
153.172
 31
0
 70
32
  1
 mm
  3
STANDARD
100
AcDbAlignedDimension
 13
187.711
 23
177.566
 33
0
 14
184.699
 24
122.126
 34
0
 50
90
100
AcDbRotatedDimension
  0
DIMENSION
  5
A7E
330
A02
100
AcDbEntity
  8
Dimension007
100
AcDbDimension
  2
*Dimension007
 10
115.476
 20
120.175
 30
0
 11
115.476
 21
125.175
 31
0
 70
32
  1
 mm
  3
STANDARD
100
AcDbAlignedDimension
 13
148.272
 23
122.126
 33
0
 14
184.699
 24
122.126
 34
0
100
AcDbRotatedDimension
  0
DIMENSION
  5
A88
330
A02
100
AcDbEntity
  8
Dimension008
100
AcDbDimension
  2
*Dimension008
 10
202.064
 20
137.796
 30
0
 11
197.064
 21
137.796
 31
0
 70
32
  1
 mm
  3
STANDARD
100
AcDbAlignedDimension
 13
148.272
 23
129.626
 33
0
 14
148.272
 24
122.126
 34
0
 50
90
100
AcDbRotatedDimension
  0
DIMENSION
  5
A92
330
A02
100
AcDbEntity
  8
Dimension009
100
AcDbDimension
  2
*Dimension009
 10
97.1156
 20
155.27
 30
0
 11
92.1156
 21
155.27
 31
0
 70
32
  1
 mm
  3
STANDARD
100
AcDbAlignedDimension
 13
82.9671
 23
175.049
 33
0
 14
82.9671
 24
133.274
 34
0
 50
90
100
AcDbRotatedDimension
  0
ENDSEC
  0
SECTION
  2
OBJECTS
  0
DICTIONARY
  5
F000
330
0
100
AcDbDictionary
  3
ACAD_GROUP
350
F001
  0
DICTIONARY
  5
F001
330
F000
100
AcDbDictionary
  0
ENDSEC
  0
EOF