999
FreeCAD v0.19 24276 (Git)
  0
SECTION
  2
HEADER
  9
$ACADVER
  1
AC1014
  9
$ACADMAINTVER
 70
     9
  9
$DWGCODEPAGE
  3
ANSI_1252
  9
$TEXTSTYLE
  7
STANDARD
  9
$DIMSTYLE
  2
STANDARD
  9
$DIMTXSTY
  7
STANDARD
  9
$CMLSTYLE
  2
STANDARD
  9
$PEXTMAX
 10
50
 20
50
 30
50
  9
$PEXTMIN
 10
0
 20
0
 30
0
  9
$HANDSEED
  5
FFFF
  0
ENDSEC
  0
SECTION
  2
CLASSES
  0
CLASS
  1
ACDBDICTIONARYWDFLT
  2
AcDbDictionaryWithDefault
  3
ObjectDBX Classes
 90
        0
280
     0
281
     0
  0
CLASS
  1
XRECORD
  2
AcDbXrecord
  3
ObjectDBX Classes
 90
        0
280
     0
281
     0
  0
CLASS
  1
LWPOLYLINE
  2
AcDbPolyline
  3
ObjectDBX Classes
 90
        0
280
     0
281
     1
  0
ENDSEC
  0
SECTION
  2
TABLES
  0
TABLE
  2
VPORT
  5
20
330
0
100
AcDbSymbolTable
 70
     1
  0
VPORT
  5
21
330
20
100
AcDbSymbolTableRecord
100
AcDbViewportTableRecord
  2
*ACTIVE
 70
     0
  0
ENDTAB
  0
TABLE
  2
LTYPE
  5
22
330
0
100
AcDbSymbolTable
 70
     1
  0
LTYPE
  5
23
330
21
100
AcDbSymbolTableRecord
100
AcDbLinetypeTableRecord
  2
BYBLOCK
 70
     0
  3

 72
    65
 73
     0
 40
0.0
  0
LTYPE
  5
24
330
21
100
AcDbSymbolTableRecord
100
AcDbLinetypeTableRecord
  2
BYLAYER
 70
     0
  3

 72
    65
 73
     0
 40
0.0
  0
LTYPE
  5
25
330
21
100
AcDbSymbolTableRecord
100
AcDbLinetypeTableRecord
  2
CONTINUOUS
 70
     0
  3
Solid line
 72
    65
 73
     0
 40
0.0
  0
ENDTAB
  0
TABLE
  2
LAYER
  5
A88
330
0
100
AcDbSymbolTable
 70
11
  0
LAYER
  5
A89
330
A88
100
AcDbSymbolTableRecord
100
AcDbLayerTableRecord
  2
0
 70
   0
 62
   7
  6
CONTINUOUS
  0
LAYER
  5
A8A
330
A88
100
AcDbSymbolTableRecord
100
AcDbLayerTableRecord
  2
ProjItem
 70
    0
 62
    7
  6
CONTINUOUS
  0
LAYER
  5
A8B
330
A88
100
AcDbSymbolTableRecord
100
AcDbLayerTableRecord
  2
ProjItem001
 70
    0
 62
    7
  6
CONTINUOUS
  0
LAYER
  5
A8C
330
A88
100
AcDbSymbolTableRecord
100
AcDbLayerTableRecord
  2
ProjItem003
 70
    0
 62
    7
  6
CONTINUOUS
  0
LAYER
  5
A8D
330
A88
100
AcDbSymbolTableRecord
100
AcDbLayerTableRecord
  2
Dimension
 70
    0
 62
    7
  6
CONTINUOUS
  0
LAYER
  5
A8E
330
A88
100
AcDbSymbolTableRecord
100
AcDbLayerTableRecord
  2
Dimension001
 70
    0
 62
    7
  6
CONTINUOUS
  0
LAYER
  5
A8F
330
A88
100
AcDbSymbolTableRecord
100
AcDbLayerTableRecord
  2
Dimension002
 70
    0
 62
    7
  6
CONTINUOUS
  0
LAYER
  5
A90
330
A88
100
AcDbSymbolTableRecord
100
AcDbLayerTableRecord
  2
Dimension003
 70
    0
 62
    7
  6
CONTINUOUS
  0
LAYER
  5
A91
330
A88
100
AcDbSymbolTableRecord
100
AcDbLayerTableRecord
  2
Dimension004
 70
    0
 62
    7
  6
CONTINUOUS
  0
LAYER
  5
A92
330
A88
100
AcDbSymbolTableRecord
100
AcDbLayerTableRecord
  2
Dimension005
 70
    0
 62
    7
  6
CONTINUOUS
  0
LAYER
  5
A93
330
A88
100
AcDbSymbolTableRecord
100
AcDbLayerTableRecord
  2
Dimension006
 70
    0
 62
    7
  6
CONTINUOUS
  0
ENDTAB
  0
TABLE
  2
STYLE
  5
70
330
0
100
AcDbSymbolTable
 70
     2
  0
STYLE
  5
71
330
70
100
AcDbSymbolTableRecord
100
AcDbTextStyleTableRecord
  2
STANDARD
 70
     0
 40
0.0
 41
1.0
 50
0.0
 71
     0
 42
2.5
  3
arial.ttf
  4

  0
STYLE
  5
72
330
70
100
AcDbSymbolTableRecord
100
AcDbTextStyleTableRecord
  2
ANNOTATIVE
 70
     0
 40
0.0
 41
1.0
 50
0.0
 71
     0
 42
2.5
  3
arial.ttf
  4

  0
ENDTAB
  0
TABLE
  2
VIEW
  5
73
330
0
100
AcDbSymbolTable
 70
     0
  0
ENDTAB
  0
TABLE
  2
UCS
  5
74
330
0
100
AcDbSymbolTable
 70
     0
  0
ENDTAB
  0
TABLE
  2
APPID
  5
75
330
0
100
AcDbSymbolTable
 70
     2
  0
APPID
  5
76
330
75
100
AcDbSymbolTableRecord
100
AcDbRegAppTableRecord
  2
ACAD
 70
     0
  0
APPID
  5
77
330
75
100
AcDbSymbolTableRecord
100
AcDbRegAppTableRecord
  2
ACADANNOTATIVE
 70
     0
  0
ENDTAB
  0
TABLE
  2
DIMSTYLE
  5
78
330
0
100
AcDbSymbolTable
 70
     2
  0
DIMSTYLE
105
79
330
78
100
AcDbSymbolTableRecord
100
AcDbDimStyleTableRecord
  2
STANDARD
 70
     0
  3

  4

  5

  6

  7

 40
0.0
 41
2.5
 42
0.625
 43
3.75
 44
1.25
 45
0.0
 46
0.0
 47
0.0
 48
0.0
140
2.5
141
2.5
142
0.0
143
0.03937007874016
144
1.0
145
0.0
146
1.0
147
0.625
 71
     0
 72
     0
 73
     0
 74
     0
 75
     0
 76
     0
 77
     1
 78
     8
170
     0
171
     3
172
     1
173
     0
174
     0
175
     0
176
     0
177
     0
178
     0
270
     2
271
     2
272
     2
273
     2
274
     3
340
71
275
     0
280
     0
281
     0
282
     0
283
     0
284
     8
285
     0
286
     0
287
     3
288
     0
  0
ENDTAB
  0
TABLE
  2
BLOCK_RECORD
  5
A01
330
0
100
AcDbSymbolTable
  70
5
  0
BLOCK_RECORD
  5
A02
330
A01
100
AcDbSymbolTableRecord
100
AcDbBlockTableRecord
  2
*MODEL_SPACE
  0
BLOCK_RECORD
  5
A03
330
A01
100
AcDbSymbolTableRecord
100
AcDbBlockTableRecord
  2
*PAPER_SPACE
  0
BLOCK_RECORD
  5
A49
330
A01
100
AcDbSymbolTableRecord
100
AcDbBlockTableRecord
  2
*Dimension
  0
BLOCK_RECORD
  5
A50
330
A01
100
AcDbSymbolTableRecord
100
AcDbBlockTableRecord
  2
*Dimension001
  0
BLOCK_RECORD
  5
A57
330
A01
100
AcDbSymbolTableRecord
100
AcDbBlockTableRecord
  2
*Dimension002
  0
BLOCK_RECORD
  5
A61
330
A01
100
AcDbSymbolTableRecord
100
AcDbBlockTableRecord
  2
*Dimension003
  0
BLOCK_RECORD
  5
A6B
330
A01
100
AcDbSymbolTableRecord
100
AcDbBlockTableRecord
  2
*Dimension004
  0
BLOCK_RECORD
  5
A75
330
A01
100
AcDbSymbolTableRecord
100
AcDbBlockTableRecord
  2
*Dimension005
  0
BLOCK_RECORD
  5
A7F
330
A01
100
AcDbSymbolTableRecord
100
AcDbBlockTableRecord
  2
*Dimension006
  0
ENDTAB
  0
ENDSEC
  0
SECTION
  2
BLOCKS
  0
BLOCK
  5
A04
330
A02
100
AcDbEntity
  8
0
100
AcDbBlockBegin
  2
*MODEL_SPACE
 70
   0
 10
0
 20
0
 30
0
  3
*MODEL_SPACE
  1
 
  0
ENDBLK
  5
A05
330
A02
100
AcDbEntity
  8
0
100
AcDbBlockEnd
  0
BLOCK
  5
A06
330
A03
100
AcDbEntity
 67
1
  8
0
100
AcDbBlockBegin
  2
*PAPER_SPACE
 70
   0
 10
0
 20
0
 30
0
  3
*PAPER_SPACE
  1
 
  0
ENDBLK
  5
A07
330
A03
100
AcDbEntity
 67
    1
  8
0
100
AcDbBlockEnd
  0
BLOCK
  5
A4A
330
A49
100
AcDbEntity
  8
Dimension
100
AcDbBlockBegin
  2
*Dimension
 70
   1
 10
0
 20
0
 30
0
  3
*Dimension
  1
 
  0
LINE
  5
A4B
330
A49
100
AcDbEntity
  8
Dimension
100
AcDbLine
 10
87.0403
 20
175.757
 30
0
 11
51.6565
 21
137.319
 31
0
  0
TEXT
  5
A4C
330
A49
100
AcDbEntity
  8
Dimension
100
AcDbText
 10
61.7714
 20
150.533
 30
0
 40
3.5
  1
R mm
  7
STANDARD
 72
1
 11
61.7714
 21
150.533
 31
0
100
AcDbText
  0
SOLID
  5
A4D
330
A49
100
AcDbEntity
  8
0
 62
     0
100
AcDbTrace
 10
55.3495
 20
140.716
 30
0
 11
54.7364
 21
141.28
 31
0
 12
51.6565
 22
137.319
 32
0
 13
51.6565
 23
137.319
 33
0
  0
ENDBLK
  5
A4E
330
A49
100
AcDbEntity
  8
Dimension
100
AcDbBlockEnd
  0
BLOCK
  5
A51
330
A50
100
AcDbEntity
  8
Dimension001
100
AcDbBlockBegin
  2
*Dimension001
 70
   1
 10
0
 20
0
 30
0
  3
*Dimension001
  1
 
  0
LINE
  5
A52
330
A50
100
AcDbEntity
  8
Dimension001
100
AcDbLine
 10
87.0403
 20
175.757
 30
0
 11
43.0877
 21
128.716
 31
0
  0
TEXT
  5
A53
330
A50
100
AcDbEntity
  8
Dimension001
100
AcDbText
 10
54.1826
 20
161.735
 30
0
 40
3.5
  1
R mm
  7
STANDARD
 72
1
 11
54.1826
 21
161.735
 31
0
100
AcDbText
  0
SOLID
  5
A54
330
A50
100
AcDbEntity
  8
0
 62
     0
100
AcDbTrace
 10
46.8057
 20
132.085
 30
0
 11
46.1968
 21
132.654
 31
0
 12
43.0877
 22
128.716
 32
0
 13
43.0877
 23
128.716
 33
0
  0
ENDBLK
  5
A55
330
A50
100
AcDbEntity
  8
Dimension001
100
AcDbBlockEnd
  0
BLOCK
  5
A58
330
A57
100
AcDbEntity
  8
Dimension002
100
AcDbBlockBegin
  2
*Dimension002
 70
   1
 10
0
 20
0
 30
0
  3
*Dimension002
  1
 
  0
LINE
  5
A59
330
A57
100
AcDbEntity
  8
Dimension002
100
AcDbLine
 10
89.304
 20
123.562
 30
0
 11
89.304
 21
144.125
 31
0
  0
LINE
  5
A5A
330
A57
100
AcDbEntity
  8
Dimension002
100
AcDbLine
 10
101.804
 20
123.612
 30
0
 11
101.804
 21
144.125
 31
0
  0
LINE
  5
A5B
330
A57
100
AcDbEntity
  8
Dimension002
100
AcDbLine
 10
101.804
 20
144.125
 30
0
 11
89.304
 21
144.125
 31
0
  0
TEXT
  5
A5C
330
A57
100
AcDbEntity
  8
Dimension002
100
AcDbText
 10
95.1926
 20
139.125
 30
0
 40
3.5
  1
 mm
  7
STANDARD
 72
1
 11
95.2126
 21
144.125
 31
0
100
AcDbText
  0
SOLID
  5
A5D
330
A57
100
AcDbEntity
  8
0
 62
     0
100
AcDbTrace
 10
106.804
 20
144.542
 30
0
 11
106.804
 21
143.709
 31
0
 12
101.804
 22
144.125
 32
0
 13
101.804
 23
144.125
 33
0
  0
SOLID
  5
A5E
330
A57
100
AcDbEntity
  8
0
 62
     0
100
AcDbTrace
 10
84.304
 20
144.542
 30
0
 11
84.304
 21
143.709
 31
0
 12
89.304
 22
144.125
 32
0
 13
89.304
 23
144.125
 33
0
  0
ENDBLK
  5
A5F
330
A57
100
AcDbEntity
  8
Dimension002
100
AcDbBlockEnd
  0
BLOCK
  5
A62
330
A61
100
AcDbEntity
  8
Dimension003
100
AcDbBlockBegin
  2
*Dimension003
 70
   1
 10
0
 20
0
 30
0
  3
*Dimension003
  1
 
  0
LINE
  5
A63
330
A61
100
AcDbEntity
  8
Dimension003
100
AcDbLine
 10
21.6903
 20
189.682
 30
0
 11
11.663
 21
189.682
 31
0
  0
LINE
  5
A64
330
A61
100
AcDbEntity
  8
Dimension003
100
AcDbLine
 10
101.852
 20
111.469
 30
0
 11
11.663
 21
111.469
 31
0
  0
LINE
  5
A65
330
A61
100
AcDbEntity
  8
Dimension003
100
AcDbLine
 10
11.663
 20
111.469
 30
0
 11
11.663
 21
189.682
 31
0
  0
TEXT
  5
A66
330
A61
100
AcDbEntity
  8
Dimension003
100
AcDbText
 10
15.1547
 20
157.08
 30
0
 40
3.5
  1
 mm
  7
STANDARD
 72
1
 11
11.663
 21
160.659
 31
0
100
AcDbText
  0
SOLID
  5
A67
330
A61
100
AcDbEntity
  8
0
 62
     0
100
AcDbTrace
 10
11.2463
 20
106.469
 30
0
 11
12.0796
 21
106.469
 31
0
 12
11.663
 22
111.469
 32
0
 13
11.663
 23
111.469
 33
0
  0
SOLID
  5
A68
330
A61
100
AcDbEntity
  8
0
 62
     0
100
AcDbTrace
 10
11.2463
 20
194.682
 30
0
 11
12.0796
 21
194.682
 31
0
 12
11.663
 22
189.682
 32
0
 13
11.663
 23
189.682
 33
0
  0
ENDBLK
  5
A69
330
A61
100
AcDbEntity
  8
Dimension003
100
AcDbBlockEnd
  0
BLOCK
  5
A6C
330
A6B
100
AcDbEntity
  8
Dimension004
100
AcDbBlockBegin
  2
*Dimension004
 70
   1
 10
0
 20
0
 30
0
  3
*Dimension004
  1
 
  0
LINE
  5
A6D
330
A6B
100
AcDbEntity
  8
Dimension004
100
AcDbLine
 10
101.852
 20
111.469
 30
0
 11
101.852
 21
182.772
 31
0
  0
LINE
  5
A6E
330
A6B
100
AcDbEntity
  8
Dimension004
100
AcDbLine
 10
21.6903
 20
189.682
 30
0
 11
21.6903
 21
182.772
 31
0
  0
LINE
  5
A6F
330
A6B
100
AcDbEntity
  8
Dimension004
100
AcDbLine
 10
21.6903
 20
182.772
 30
0
 11
101.852
 21
182.772
 31
0
  0
TEXT
  5
A70
330
A6B
100
AcDbEntity
  8
Dimension004
100
AcDbText
 10
62.8555
 20
186.351
 30
0
 40
3.5
  1
 mm
  7
STANDARD
 72
1
 11
66.3472
 21
182.772
 31
0
100
AcDbText
  0
SOLID
  5
A71
330
A6B
100
AcDbEntity
  8
0
 62
     0
100
AcDbTrace
 10
16.6903
 20
182.356
 30
0
 11
16.6903
 21
183.189
 31
0
 12
21.6903
 22
182.772
 32
0
 13
21.6903
 23
182.772
 33
0
  0
SOLID
  5
A72
330
A6B
100
AcDbEntity
  8
0
 62
     0
100
AcDbTrace
 10
106.852
 20
182.356
 30
0
 11
106.852
 21
183.189
 31
0
 12
101.852
 22
182.772
 32
0
 13
101.852
 23
182.772
 33
0
  0
ENDBLK
  5
A73
330
A6B
100
AcDbEntity
  8
Dimension004
100
AcDbBlockEnd
  0
BLOCK
  5
A76
330
A75
100
AcDbEntity
  8
Dimension005
100
AcDbBlockBegin
  2
*Dimension005
 70
   1
 10
0
 20
0
 30
0
  3
*Dimension005
  1
 
  0
LINE
  5
A77
330
A75
100
AcDbEntity
  8
Dimension005
100
AcDbLine
 10
169.45
 20
183.469
 30
0
 11
169.45
 21
179.192
 31
0
  0
LINE
  5
A78
330
A75
100
AcDbEntity
  8
Dimension005
100
AcDbLine
 10
155.3
 20
183.469
 30
0
 11
155.3
 21
179.192
 31
0
  0
LINE
  5
A79
330
A75
100
AcDbEntity
  8
Dimension005
100
AcDbLine
 10
155.3
 20
179.192
 30
0
 11
169.45
 21
179.192
 31
0
  0
TEXT
  5
A7A
330
A75
100
AcDbEntity
  8
Dimension005
100
AcDbText
 10
184.419
 20
184.192
 30
0
 40
3.5
  1
 mm
  7
STANDARD
 72
1
 11
184.419
 21
179.192
 31
0
100
AcDbText
  0
SOLID
  5
A7B
330
A75
100
AcDbEntity
  8
0
 62
     0
100
AcDbTrace
 10
150.3
 20
178.775
 30
0
 11
150.3
 21
179.608
 31
0
 12
155.3
 22
179.192
 32
0
 13
155.3
 23
179.192
 33
0
  0
SOLID
  5
A7C
330
A75
100
AcDbEntity
  8
0
 62
     0
100
AcDbTrace
 10
174.45
 20
178.775
 30
0
 11
174.45
 21
179.608
 31
0
 12
169.45
 22
179.192
 32
0
 13
169.45
 23
179.192
 33
0
  0
ENDBLK
  5
A7D
330
A75
100
AcDbEntity
  8
Dimension005
100
AcDbBlockEnd
  0
BLOCK
  5
A80
330
A7F
100
AcDbEntity
  8
Dimension006
100
AcDbBlockBegin
  2
*Dimension006
 70
   1
 10
0
 20
0
 30
0
  3
*Dimension006
  1
 
  0
LINE
  5
A81
330
A7F
100
AcDbEntity
  8
Dimension006
100
AcDbLine
 10
168.447
 20
111.233
 30
0
 11
168.447
 21
106.233
 31
0
  0
LINE
  5
A82
330
A7F
100
AcDbEntity
  8
Dimension006
100
AcDbLine
 10
156.304
 20
111.233
 30
0
 11
156.304
 21
106.233
 31
0
  0
LINE
  5
A83
330
A7F
100
AcDbEntity
  8
Dimension006
100
AcDbLine
 10
156.304
 20
106.233
 30
0
 11
168.447
 21
106.233
 31
0
  0
TEXT
  5
A84
330
A7F
100
AcDbEntity
  8
Dimension006
100
AcDbText
 10
179.721
 20
111.233
 30
0
 40
3.5
  1
 mm
  7
STANDARD
 72
1
 11
179.721
 21
106.233
 31
0
100
AcDbText
  0
SOLID
  5
A85
330
A7F
100
AcDbEntity
  8
0
 62
     0
100
AcDbTrace
 10
151.304
 20
105.816
 30
0
 11
151.304
 21
106.649
 31
0
 12
156.304
 22
106.233
 32
0
 13
156.304
 23
106.233
 33
0
  0
SOLID
  5
A86
330
A7F
100
AcDbEntity
  8
0
 62
     0
100
AcDbTrace
 10
173.447
 20
105.816
 30
0
 11
173.447
 21
106.649
 31
0
 12
168.447
 22
106.233
 32
0
 13
168.447
 23
106.233
 33
0
  0
ENDBLK
  5
A87
330
A7F
100
AcDbEntity
  8
Dimension006
100
AcDbBlockEnd
  0
ENDSEC
  0
SECTION
  2
ENTITIES
  0
SPLINE
  5
A08
330
A02
100
AcDbEntity
  8
ProjItem
100
AcDbSpline
210
0
220
0
230
1
 70
8
 71
1
 72
4
 73
2
 74
0
 40
0
 40
0
 40
0.00183084
 40
0.00183084
 10
156.304
 20
168.267
 30
0
 10
156.304
 20
168.267
 30
0
  0
SPLINE
  5
A09
330
A02
100
AcDbEntity
  8
ProjItem
100
AcDbSpline
210
0
220
0
230
1
 70
8
 71
1
 72
4
 73
2
 74
0
 40
1.92922e-07
 40
1.92922e-07
 40
1
 40
1
 10
156.304
 20
168.267
 30
0
 10
156.304
 20
167.489
 30
0
  0
LINE
  5
A0A
330
A02
100
AcDbEntity
  8
ProjItem
100
AcDbLine
 10
156.304
 20
167.489
 30
0
 11
156.304
 21
168.267
 31
0
  0
SPLINE
  5
A0B
330
A02
100
AcDbEntity
  8
ProjItem
100
AcDbSpline
210
0
220
0
230
1
 70
8
 71
1
 72
4
 73
2
 74
0
 40
3.13976
 40
3.13976
 40
3.14159
 40
3.14159
 10
168.447
 20
168.267
 30
0
 10
168.447
 20
168.267
 30
0
  0
SPLINE
  5
A0C
330
A02
100
AcDbEntity
  8
ProjItem
100
AcDbSpline
210
0
220
0
230
1
 70
8
 71
3
 72
17
 73
13
 74
0
 40
0
 40
0
 40
0
 40
0
 40
0.23369
 40
0.23369
 40
0.23369
 40
0.502192
 40
0.502192
 40
0.502192
 40
0.766893
 40
0.766893
 40
0.766893
 40
1
 40
1
 40
1
 40
1
 10
168.447
 20
168.267
 30
0
 10
168.454
 20
168.271
 30
0
 10
167.887
 20
168.275
 30
0
 10
166.888
 20
168.278
 30
0
 10
165.75
 20
168.282
 30
0
 10
164.05
 20
168.284
 30
0
 10
162.339
 20
168.284
 30
0
 10
160.653
 20
168.284
 30
0
 10
158.985
 20
168.282
 30
0
 10
157.863
 20
168.278
 30
0
 10
156.866
 20
168.275
 30
0
 10
156.299
 20
168.271
 30
0
 10
156.304
 20
168.267
 30
0
  0
SPLINE
  5
A0D
330
A02
100
AcDbEntity
  8
ProjItem
100
AcDbSpline
210
0
220
0
230
1
 70
8
 71
1
 72
4
 73
2
 74
0
 40
0
 40
0
 40
1
 40
1
 10
156.304
 20
168.267
 30
0
 10
156.304
 20
168.267
 30
0
  0
LINE
  5
A0E
330
A02
100
AcDbEntity
  8
ProjItem
100
AcDbLine
 10
156.304
 20
168.267
 30
0
 11
156.006
 21
168.517
 31
0
  0
SPLINE
  5
A0F
330
A02
100
AcDbEntity
  8
ProjItem
100
AcDbSpline
210
0
220
0
230
1
 70
8
 71
1
 72
17
 73
15
 74
0
 40
0
 40
0
 40
0.224399
 40
0.448799
 40
0.673198
 40
0.897598
 40
1.122
 40
1.3464
 40
1.5708
 40
1.7952
 40
2.0196
 40
2.24399
 40
2.46839
 40
2.69279
 40
2.91719
 40
3.14159
 40
3.14159
 10
156.304
 20
167.489
 30
0
 10
156.456
 20
167.489
 30
0
 10
156.905
 20
167.489
 30
0
 10
157.629
 20
167.489
 30
0
 10
158.59
 20
167.489
 30
0
 10
159.741
 20
167.489
 30
0
 10
161.024
 20
167.489
 30
0
 10
162.375
 20
167.489
 30
0
 10
163.726
 20
167.489
 30
0
 10
165.01
 20
167.489
 30
0
 10
166.161
 20
167.489
 30
0
 10
167.122
 20
167.489
 30
0
 10
167.845
 20
167.489
 30
0
 10
168.294
 20
167.489
 30
0
 10
168.447
 20
167.489
 30
0
  0
SPLINE
  5
A10
330
A02
100
AcDbEntity
  8
ProjItem
100
AcDbSpline
210
0
220
0
230
1
 70
8
 71
1
 72
17
 73
15
 74
0
 40
0.00183084
 40
0.00183084
 40
0.225969
 40
0.450107
 40
0.674245
 40
0.898383
 40
1.12252
 40
1.34666
 40
1.5708
 40
1.79493
 40
2.01907
 40
2.24321
 40
2.46735
 40
2.69149
 40
2.91562
 40
3.13976
 40
3.13976
 10
156.304
 20
168.267
 30
0
 10
156.459
 20
168.267
 30
0
 10
156.909
 20
168.267
 30
0
 10
157.633
 20
168.267
 30
0
 10
158.594
 20
168.267
 30
0
 10
159.744
 20
168.267
 30
0
 10
161.026
 20
168.267
 30
0
 10
162.375
 20
168.267
 30
0
 10
163.725
 20
168.267
 30
0
 10
165.007
 20
168.267
 30
0
 10
166.157
 20
168.267
 30
0
 10
167.118
 20
168.267
 30
0
 10
167.842
 20
168.267
 30
0
 10
168.292
 20
168.267
 30
0
 10
168.447
 20
168.267
 30
0
  0
SPLINE
  5
A11
330
A02
100
AcDbEntity
  8
ProjItem
100
AcDbSpline
210
0
220
0
230
1
 70
8
 71
1
 72
17
 73
15
 74
0
 40
0
 40
0
 40
0.224399
 40
0.448799
 40
0.673198
 40
0.897598
 40
1.122
 40
1.3464
 40
1.5708
 40
1.7952
 40
2.0196
 40
2.24399
 40
2.46839
 40
2.69279
 40
2.91719
 40
3.14159
 40
3.14159
 10
155.3
 20
168.517
 30
0
 10
155.478
 20
168.517
 30
0
 10
156.001
 20
168.517
 30
0
 10
156.844
 20
168.517
 30
0
 10
157.964
 20
168.517
 30
0
 10
159.306
 20
168.517
 30
0
 10
160.801
 20
168.517
 30
0
 10
162.375
 20
168.517
 30
0
 10
163.95
 20
168.517
 30
0
 10
165.445
 20
168.517
 30
0
 10
166.787
 20
168.517
 30
0
 10
167.907
 20
168.517
 30
0
 10
168.75
 20
168.517
 30
0
 10
169.273
 20
168.517
 30
0
 10
169.45
 20
168.517
 30
0
  0
SPLINE
  5
A12
330
A02
100
AcDbEntity
  8
ProjItem
100
AcDbSpline
210
0
220
0
230
1
 70
8
 71
1
 72
17
 73
15
 74
0
 40
3.17686
 40
3.17686
 40
3.28935
 40
3.40183
 40
3.51432
 40
3.62681
 40
3.73929
 40
3.85178
 40
3.96426
 40
4.07675
 40
4.18923
 40
4.30172
 40
4.4142
 40
4.52669
 40
4.63917
 40
4.75166
 40
4.75166
 10
156.304
 20
167.489
 30
0
 10
156.304
 20
160.961
 30
0
 10
156.304
 20
154.541
 30
0
 10
156.304
 20
148.311
 30
0
 10
156.304
 20
142.349
 30
0
 10
156.304
 20
136.731
 30
0
 10
156.304
 20
131.528
 30
0
 10
156.304
 20
126.805
 30
0
 10
156.304
 20
122.622
 30
0
 10
156.304
 20
119.033
 30
0
 10
156.304
 20
116.082
 30
0
 10
156.304
 20
113.806
 30
0
 10
156.304
 20
112.236
 30
0
 10
156.304
 20
111.389
 30
0
 10
156.304
 20
111.278
 30
0
  0
SPLINE
  5
A13
330
A02
100
AcDbEntity
  8
ProjItem
100
AcDbSpline
210
0
220
0
230
1
 70
8
 71
1
 72
17
 73
15
 74
0
 40
0
 40
0
 40
0.224399
 40
0.448799
 40
0.673198
 40
0.897598
 40
1.122
 40
1.3464
 40
1.5708
 40
1.7952
 40
2.0196
 40
2.24399
 40
2.46839
 40
2.69279
 40
2.91719
 40
3.14159
 40
3.14159
 10
155.3
 20
183.469
 30
0
 10
155.478
 20
183.469
 30
0
 10
156.001
 20
183.469
 30
0
 10
156.844
 20
183.469
 30
0
 10
157.964
 20
183.469
 30
0
 10
159.306
 20
183.469
 30
0
 10
160.801
 20
183.469
 30
0
 10
162.375
 20
183.469
 30
0
 10
163.95
 20
183.469
 30
0
 10
165.445
 20
183.469
 30
0
 10
166.787
 20
183.469
 30
0
 10
167.907
 20
183.469
 30
0
 10
168.75
 20
183.469
 30
0
 10
169.273
 20
183.469
 30
0
 10
169.45
 20
183.469
 30
0
  0
LINE
  5
A14
330
A02
100
AcDbEntity
  8
ProjItem
100
AcDbLine
 10
155.3
 20
168.517
 30
0
 11
155.3
 21
183.469
 31
0
  0
LINE
  5
A15
330
A02
100
AcDbEntity
  8
ProjItem
100
AcDbLine
 10
168.447
 20
168.267
 30
0
 11
168.745
 21
168.517
 31
0
  0
LINE
  5
A16
330
A02
100
AcDbEntity
  8
ProjItem
100
AcDbLine
 10
168.447
 20
167.489
 30
0
 11
168.447
 21
168.267
 31
0
  0
SPLINE
  5
A17
330
A02
100
AcDbEntity
  8
ProjItem
100
AcDbSpline
210
0
220
0
230
1
 70
8
 71
3
 72
20
 73
16
 74
0
 40
0
 40
0
 40
0
 40
0
 40
0.125
 40
0.125
 40
0.125
 40
0.25
 40
0.25
 40
0.25
 40
0.375
 40
0.375
 40
0.375
 40
0.5
 40
0.5
 40
0.5
 40
1
 40
1
 40
1
 40
1
 10
168.447
 20
167.489
 30
0
 10
168.447
 20
161.152
 30
0
 10
168.447
 20
154.832
 30
0
 10
168.447
 20
148.891
 30
0
 10
168.447
 20
142.947
 30
0
 10
168.447
 20
137.38
 30
0
 10
168.447
 20
132.481
 30
0
 10
168.447
 20
127.579
 30
0
 10
168.447
 20
123.343
 30
0
 10
168.447
 20
119.994
 30
0
 10
168.447
 20
116.643
 30
0
 10
168.447
 20
114.178
 30
0
 10
168.447
 20
112.748
 30
0
 10
168.447
 20
111.74
 30
0
 10
168.447
 20
111.235
 30
0
 10
168.447
 20
111.233
 30
0
  0
SPLINE
  5
A18
330
A02
100
AcDbEntity
  8
ProjItem
100
AcDbSpline
210
0
220
0
230
1
 70
8
 71
3
 72
29
 73
25
 74
0
 40
0
 40
0
 40
0
 40
0
 40
0.125
 40
0.125
 40
0.125
 40
0.25
 40
0.25
 40
0.25
 40
0.375
 40
0.375
 40
0.375
 40
0.5
 40
0.5
 40
0.5
 40
0.625
 40
0.625
 40
0.625
 40
0.75
 40
0.75
 40
0.75
 40
0.875
 40
0.875
 40
0.875
 40
1
 40
1
 40
1
 40
1
 10
156.304
 20
111.233
 30
0
 10
156.304
 20
110.447
 30
0
 10
156.459
 20
109.661
 30
0
 10
156.757
 20
108.933
 30
0
 10
157.055
 20
108.206
 30
0
 10
157.496
 20
107.537
 30
0
 10
158.048
 20
106.977
 30
0
 10
158.593
 20
106.423
 30
0
 10
159.247
 20
105.974
 30
0
 10
159.961
 20
105.666
 30
0
 10
160.674
 20
105.356
 30
0
 10
161.448
 20
105.186
 30
0
 10
162.226
 20
105.167
 30
0
 10
163.059
 20
105.146
 30
0
 10
163.895
 20
105.299
 30
0
 10
164.667
 20
105.614
 30
0
 10
165.438
 20
105.927
 30
0
 10
166.144
 20
106.402
 30
0
 10
166.725
 20
106.999
 30
0
 10
167.27
 20
107.558
 30
0
 10
167.706
 20
108.224
 30
0
 10
168
 20
108.948
 30
0
 10
168.294
 20
109.671
 30
0
 10
168.447
 20
110.452
 30
0
 10
168.447
 20
111.233
 30
0
  0
LINE
  5
A19
330
A02
100
AcDbEntity
  8
ProjItem
100
AcDbLine
 10
169.45
 20
168.517
 30
0
 11
169.45
 21
183.469
 31
0
  0
SPLINE
  5
A1A
330
A02
100
AcDbEntity
  8
ProjItem001
100
AcDbSpline
210
0
220
0
230
1
 70
8
 71
1
 72
4
 73
2
 74
0
 40
0.888394
 40
0.888394
 40
1
 40
1
 10
272.181
 20
159.069
 30
0
 10
272.18
 20
158.999
 30
0
  0
ELLIPSE
  5
A1B
330
A02
100
AcDbEntity
  8
ProjItem001
100
AcDbEllipse
 10
276.473
 20
161.477
 30
0
 11
6.07125
 21
-9.76331e-16
 31
0
 40
0.57735
 41
3.92699
 42
5.60396
  0
ELLIPSE
  5
A1C
330
A02
100
AcDbEntity
  8
ProjItem001
100
AcDbEllipse
 10
276.473
 20
161.477
 30
0
 11
6.07125
 21
-9.76331e-16
 31
0
 40
0.57735
 41
3.82082
 42
3.92699
  0
ELLIPSE
  5
A1D
330
A02
100
AcDbEntity
  8
ProjItem001
100
AcDbEllipse
 10
276.473
 20
162.316
 30
0
 11
7.075
 21
-1.13775e-15
 31
0
 40
0.57735
 41
3.92699
 42
0
  0
ELLIPSE
  5
A1E
330
A02
100
AcDbEntity
  8
ProjItem001
100
AcDbEllipse
 10
276.473
 20
162.316
 30
0
 11
7.075
 21
-1.13775e-15
 31
0
 40
0.57735
 41
3.14159
 42
3.92699
  0
ELLIPSE
  5
A1F
330
A02
100
AcDbEntity
  8
ProjItem001
100
AcDbEllipse
 10
233.649
 20
140.306
 30
0
 11
-3.05378
 21
-5.24733
 31
0
 40
0.575037
 41
5.49978
 42
6.26714
  0
ELLIPSE
  5
A20
330
A02
100
AcDbEntity
  8
ProjItem001
100
AcDbEllipse
 10
233.649
 20
140.306
 30
0
 11
-3.05378
 21
-5.24733
 31
0
 40
0.575037
 41
3.12309
 42
3.14159
  0
ELLIPSE
  5
A21
330
A02
100
AcDbEntity
  8
ProjItem001
100
AcDbEllipse
 10
233.649
 20
140.306
 30
0
 11
-3.05378
 21
-5.24733
 31
0
 40
0.575037
 41
3.14159
 42
5.49978
  0
ELLIPSE
  5
A22
330
A02
100
AcDbEntity
  8
ProjItem001
100
AcDbEllipse
 10
276.473
 20
174.525
 30
0
 11
7.075
 21
-1.13775e-15
 31
0
 40
0.57735
 41
3.92699
 42
0
  0
ELLIPSE
  5
A23
330
A02
100
AcDbEntity
  8
ProjItem001
100
AcDbEllipse
 10
276.473
 20
174.525
 30
0
 11
7.075
 21
-1.13775e-15
 31
0
 40
0.57735
 41
0
 42
3.14159
  0
ELLIPSE
  5
A24
330
A02
100
AcDbEntity
  8
ProjItem001
100
AcDbEllipse
 10
276.473
 20
174.525
 30
0
 11
7.075
 21
-1.13775e-15
 31
0
 40
0.57735
 41
3.14159
 42
3.92699
  0
ELLIPSE
  5
A25
330
A02
100
AcDbEntity
  8
ProjItem001
100
AcDbEllipse
 10
224.81
 20
145.45
 30
0
 11
-3.05378
 21
-5.24733
 31
0
 40
0.575037
 41
5.49978
 42
0
  0
ELLIPSE
  5
A26
330
A02
100
AcDbEntity
  8
ProjItem001
100
AcDbEllipse
 10
224.81
 20
145.45
 30
0
 11
-3.05378
 21
-5.24733
 31
0
 40
0.575037
 41
3.14159
 42
5.49978
  0
ELLIPSE
  5
A27
330
A02
100
AcDbEntity
  8
ProjItem001
100
AcDbEllipse
 10
276.473
 20
174.525
 30
0
 11
6.0475
 21
-9.72512e-16
 31
0
 40
0.57735
 41
3.92699
 42
0
  0
ELLIPSE
  5
A28
330
A02
100
AcDbEntity
  8
ProjItem001
100
AcDbEllipse
 10
276.473
 20
174.525
 30
0
 11
6.0475
 21
-9.72512e-16
 31
0
 40
0.57735
 41
0
 42
3.14159
  0
ELLIPSE
  5
A29
330
A02
100
AcDbEntity
  8
ProjItem001
100
AcDbEllipse
 10
276.473
 20
174.525
 30
0
 11
6.0475
 21
-9.72512e-16
 31
0
 40
0.57735
 41
3.14159
 42
3.92699
  0
SPLINE
  5
A2A
330
A02
100
AcDbEntity
  8
ProjItem001
100
AcDbSpline
210
0
220
0
230
1
 70
8
 71
3
 72
26
 73
22
 74
0
 40
0
 40
0
 40
0
 40
0
 40
0.125
 40
0.125
 40
0.125
 40
0.25
 40
0.25
 40
0.25
 40
0.375
 40
0.375
 40
0.375
 40
0.5
 40
0.5
 40
0.5
 40
0.625
 40
0.625
 40
0.625
 40
0.75
 40
0.75
 40
0.75
 40
0.986796
 40
0.986796
 40
0.986796
 40
0.986796
 10
230.547
 20
135.087
 30
0
 10
234.535
 20
132.615
 30
0
 10
238.59
 20
130.706
 30
0
 10
242.625
 20
129.441
 30
0
 10
246.66
 20
128.175
 30
0
 10
250.673
 20
127.553
 30
0
 10
254.552
 20
127.658
 30
0
 10
256.891
 20
127.722
 30
0
 10
259.179
 20
128.05
 30
0
 10
261.37
 20
128.654
 30
0
 10
263.561
 20
129.257
 30
0
 10
265.654
 20
130.135
 30
0
 10
267.596
 20
131.273
 30
0
 10
269.492
 20
132.383
 30
0
 10
271.243
 20
133.741
 30
0
 10
272.813
 20
135.309
 30
0
 10
274.384
 20
136.876
 30
0
 10
275.773
 20
138.654
 30
0
 10
276.969
 20
140.6
 30
0
 10
280.306
 20
146.035
 30
0
 10
282.12
 20
152.755
 30
0
 10
282.494
 20
160.171
 30
0
  0
SPLINE
  5
A2B
330
A02
100
AcDbEntity
  8
ProjItem001
100
AcDbSpline
210
0
220
0
230
1
 70
8
 71
3
 72
26
 73
22
 74
0
 40
0
 40
0
 40
0
 40
0
 40
0.2
 40
0.2
 40
0.2
 40
0.3
 40
0.3
 40
0.3
 40
0.4
 40
0.4
 40
0.4
 40
0.6
 40
0.6
 40
0.6
 40
0.8
 40
0.8
 40
0.8
 40
0.893794
 40
0.893794
 40
0.893794
 40
0.987588
 40
0.987588
 40
0.987588
 40
0.987588
 10
236.758
 20
145.52
 30
0
 10
238.588
 20
144.374
 30
0
 10
240.407
 20
143.394
 30
0
 10
242.183
 20
142.589
 30
0
 10
244.723
 20
141.437
 30
0
 10
247.178
 20
140.646
 30
0
 10
249.457
 20
140.208
 30
0
 10
251.738
 20
139.769
 30
0
 10
253.844
 20
139.682
 30
0
 10
255.728
 20
139.893
 30
0
 10
257.841
 20
140.132
 30
0
 10
259.68
 20
140.731
 30
0
 10
261.313
 20
141.658
 30
0
 10
262.953
 20
142.592
 30
0
 10
264.406
 20
143.869
 30
0
 10
265.686
 20
145.567
 30
0
 10
266.936
 20
147.227
 30
0
 10
268.01
 20
149.306
 30
0
 10
268.813
 20
151.78
 30
0
 10
269.616
 20
154.251
 30
0
 10
270.147
 20
157.118
 30
0
 10
270.343
 20
160.277
 30
0
  0
LINE
  5
A2C
330
A02
100
AcDbEntity
  8
ProjItem001
100
AcDbLine
 10
283.548
 20
162.316
 30
0
 11
283.548
 21
174.525
 31
0
  0
LINE
  5
A2D
330
A02
100
AcDbEntity
  8
ProjItem001
100
AcDbLine
 10
269.398
 20
162.316
 30
0
 11
269.398
 21
174.525
 31
0
  0
LINE
  5
A2E
330
A02
100
AcDbEntity
  8
ProjItem001
100
AcDbLine
 10
221.756
 20
140.202
 30
0
 11
230.571
 21
135.072
 31
0
  0
LINE
  5
A2F
330
A02
100
AcDbEntity
  8
ProjItem001
100
AcDbLine
 10
227.864
 20
150.697
 30
0
 11
236.703
 21
145.553
 31
0
  0
ELLIPSE
  5
A30
330
A02
100
AcDbEntity
  8
ProjItem001
100
AcDbEllipse
 10
230.974
 20
184.467
 30
0
 11
29.1556
 21
-50.499
 31
0
 40
0.57735
 41
-0.824646
 42
-5.53304
  0
LINE
  5
A31
330
A02
100
AcDbEntity
  8
ProjItem001
100
AcDbLine
 10
272.18
 20
158.999
 30
0
 11
272.18
 21
159.069
 31
0
  0
LINE
  5
A32
330
A02
100
AcDbEntity
  8
ProjItem001
100
AcDbLine
 10
271.471
 20
159.428
 30
0
 11
271.471
 21
171.637
 31
0
  0
LINE
  5
A33
330
A02
100
AcDbEntity
  8
ProjItem001
100
AcDbLine
 10
229.356
 20
137.827
 30
0
 11
220.517
 21
142.971
 31
0
  0
SPLINE
  5
A34
330
A02
100
AcDbEntity
  8
ProjItem003
100
AcDbSpline
210
0
220
0
230
1
 70
8
 71
1
 72
17
 73
15
 74
0
 40
3.13976
 40
3.13976
 40
3.25209
 40
3.36442
 40
3.47675
 40
3.58908
 40
3.70141
 40
3.81374
 40
3.92608
 40
4.03841
 40
4.15074
 40
4.26307
 40
4.3754
 40
4.48773
 40
4.60006
 40
4.71239
 40
4.71239
 10
28.7542
 20
174.479
 30
0
 10
29.4348
 20
174.479
 30
0
 10
30.107
 20
174.479
 30
0
 10
30.7622
 20
174.479
 30
0
 10
31.3923
 20
174.479
 30
0
 10
31.9893
 20
174.479
 30
0
 10
32.5457
 20
174.479
 30
0
 10
33.0544
 20
174.479
 30
0
 10
33.509
 20
174.479
 30
0
 10
33.9038
 20
174.479
 30
0
 10
34.2339
 20
174.479
 30
0
 10
34.495
 20
174.479
 30
0
 10
34.6839
 20
174.479
 30
0
 10
34.7983
 20
174.479
 30
0
 10
34.8365
 20
174.479
 30
0
  0
SPLINE
  5
A35
330
A02
100
AcDbEntity
  8
ProjItem003
100
AcDbSpline
210
0
220
0
230
1
 70
8
 71
3
 72
14
 73
10
 74
0
 40
0
 40
0
 40
0
 40
0
 40
0.23369
 40
0.23369
 40
0.23369
 40
0.379613
 40
0.379613
 40
0.379613
 40
0.500291
 40
0.500291
 40
0.500291
 40
0.500291
 10
28.7542
 20
174.479
 30
0
 10
27.2661
 20
174.484
 30
0
 10
25.7852
 20
174.488
 30
0
 10
24.6827
 20
174.491
 30
0
 10
23.9923
 20
174.493
 30
0
 10
23.4478
 20
174.494
 30
0
 10
23.1049
 20
174.495
 30
0
 10
22.8187
 20
174.496
 30
0
 10
22.6749
 20
174.496
 30
0
 10
22.6735
 20
174.496
 30
0
  0
SPLINE
  5
A36
330
A02
100
AcDbEntity
  8
ProjItem003
100
AcDbSpline
210
0
220
0
230
1
 70
8
 71
3
 72
8
 73
4
 74
0
 40
0.500291
 40
0.500291
 40
0.500291
 40
0.500291
 40
0.713144
 40
0.713144
 40
0.713144
 40
0.713144
 10
22.6735
 20
174.496
 30
0
 10
22.6701
 20
174.496
 30
0
 10
23.1391
 20
174.495
 30
0
 10
23.9819
 20
174.493
 30
0
  0
SPLINE
  5
A37
330
A02
100
AcDbEntity
  8
ProjItem003
100
AcDbSpline
210
0
220
0
230
1
 70
8
 71
1
 72
17
 73
15
 74
0
 40
1.5708
 40
1.5708
 40
1.7952
 40
2.0196
 40
2.24399
 40
2.46839
 40
2.69279
 40
2.91719
 40
3.14159
 40
3.36599
 40
3.59039
 40
3.81479
 40
4.03919
 40
4.26359
 40
4.48799
 40
4.71239
 40
4.71239
 10
22.694
 20
173.702
 30
0
 10
22.8462
 20
173.702
 30
0
 10
23.2953
 20
173.702
 30
0
 10
24.0186
 20
173.702
 30
0
 10
24.9799
 20
173.702
 30
0
 10
26.1311
 20
173.702
 30
0
 10
27.4143
 20
173.702
 30
0
 10
28.7653
 20
173.702
 30
0
 10
30.1162
 20
173.702
 30
0
 10
31.3995
 20
173.702
 30
0
 10
32.5506
 20
173.702
 30
0
 10
33.512
 20
173.702
 30
0
 10
34.2353
 20
173.702
 30
0
 10
34.6843
 20
173.702
 30
0
 10
34.8365
 20
173.702
 30
0
  0
SPLINE
  5
A38
330
A02
100
AcDbEntity
  8
ProjItem003
100
AcDbSpline
210
0
220
0
230
1
 70
8
 71
1
 72
17
 73
15
 74
0
 40
1.5708
 40
1.5708
 40
1.68287
 40
1.79493
 40
1.907
 40
2.01907
 40
2.13114
 40
2.24321
 40
2.35528
 40
2.46735
 40
2.57942
 40
2.69149
 40
2.80355
 40
2.91562
 40
3.02769
 40
3.13976
 40
3.13976
 10
22.694
 20
174.479
 30
0
 10
22.7321
 20
174.479
 30
0
 10
22.8459
 20
174.479
 30
0
 10
23.0339
 20
174.479
 30
0
 10
23.2939
 20
174.479
 30
0
 10
23.6225
 20
174.479
 30
0
 10
24.0156
 20
174.479
 30
0
 10
24.4683
 20
174.479
 30
0
 10
24.9749
 20
174.479
 30
0
 10
25.5291
 20
174.479
 30
0
 10
26.1239
 20
174.479
 30
0
 10
26.7518
 20
174.479
 30
0
 10
27.405
 20
174.479
 30
0
 10
28.0752
 20
174.479
 30
0
 10
28.7542
 20
174.479
 30
0
  0
SPLINE
  5
A39
330
A02
100
AcDbEntity
  8
ProjItem003
100
AcDbSpline
210
0
220
0
230
1
 70
8
 71
1
 72
17
 73
15
 74
0
 40
1.5708
 40
1.5708
 40
1.7952
 40
2.0196
 40
2.24399
 40
2.46839
 40
2.69279
 40
2.91719
 40
3.14159
 40
3.36599
 40
3.59039
 40
3.81479
 40
4.03919
 40
4.26359
 40
4.48799
 40
4.71239
 40
4.71239
 10
21.6903
 20
174.729
 30
0
 10
21.8677
 20
174.729
 30
0
 10
22.3909
 20
174.729
 30
0
 10
23.2338
 20
174.729
 30
0
 10
24.3541
 20
174.729
 30
0
 10
25.6955
 20
174.729
 30
0
 10
27.1909
 20
174.729
 30
0
 10
28.7653
 20
174.729
 30
0
 10
30.3396
 20
174.729
 30
0
 10
31.835
 20
174.729
 30
0
 10
33.1765
 20
174.729
 30
0
 10
34.2967
 20
174.729
 30
0
 10
35.1396
 20
174.729
 30
0
 10
35.6629
 20
174.729
 30
0
 10
35.8403
 20
174.729
 30
0
  0
SPLINE
  5
A3A
330
A02
100
AcDbEntity
  8
ProjItem003
100
AcDbSpline
210
0
220
0
230
1
 70
8
 71
1
 72
17
 73
15
 74
0
 40
1.5708
 40
1.5708
 40
1.7952
 40
2.0196
 40
2.24399
 40
2.46839
 40
2.69279
 40
2.91719
 40
3.14159
 40
3.36599
 40
3.59039
 40
3.81479
 40
4.03919
 40
4.26359
 40
4.48799
 40
4.71239
 40
4.71239
 10
89.3526
 20
111.419
 30
0
 10
89.3519
 20
111.571
 30
0
 10
89.3502
 20
112.02
 30
0
 10
89.3473
 20
112.744
 30
0
 10
89.3434
 20
113.705
 30
0
 10
89.3388
 20
114.856
 30
0
 10
89.3337
 20
116.139
 30
0
 10
89.3283
 20
117.49
 30
0
 10
89.3229
 20
118.841
 30
0
 10
89.3177
 20
120.125
 30
0
 10
89.3131
 20
121.276
 30
0
 10
89.3093
 20
122.237
 30
0
 10
89.3064
 20
122.96
 30
0
 10
89.3046
 20
123.409
 30
0
 10
89.304
 20
123.562
 30
0
  0
SPLINE
  5
A3B
330
A02
100
AcDbEntity
  8
ProjItem003
100
AcDbSpline
210
0
220
0
230
1
 70
8
 71
1
 72
17
 73
15
 74
0
 40
1.5708
 40
1.5708
 40
1.7952
 40
2.0196
 40
2.24399
 40
2.46839
 40
2.69279
 40
2.91719
 40
3.14159
 40
3.36599
 40
3.59039
 40
3.81479
 40
4.03919
 40
4.26359
 40
4.48799
 40
4.71239
 40
4.71239
 10
21.6903
 20
189.682
 30
0
 10
21.8677
 20
189.682
 30
0
 10
22.3909
 20
189.682
 30
0
 10
23.2338
 20
189.682
 30
0
 10
24.3541
 20
189.682
 30
0
 10
25.6955
 20
189.682
 30
0
 10
27.1909
 20
189.682
 30
0
 10
28.7653
 20
189.682
 30
0
 10
30.3396
 20
189.682
 30
0
 10
31.835
 20
189.682
 30
0
 10
33.1765
 20
189.682
 30
0
 10
34.2967
 20
189.682
 30
0
 10
35.1396
 20
189.682
 30
0
 10
35.6629
 20
189.682
 30
0
 10
35.8403
 20
189.682
 30
0
  0
SPLINE
  5
A3C
330
A02
100
AcDbEntity
  8
ProjItem003
100
AcDbSpline
210
0
220
0
230
1
 70
8
 71
1
 72
17
 73
15
 74
0
 40
1.5708
 40
1.5708
 40
1.7952
 40
2.0196
 40
2.24399
 40
2.46839
 40
2.69279
 40
2.91719
 40
3.14159
 40
3.36599
 40
3.59039
 40
3.81479
 40
4.03919
 40
4.26359
 40
4.48799
 40
4.71239
 40
4.71239
 10
101.852
 20
111.469
 30
0
 10
101.852
 20
111.621
 30
0
 10
101.85
 20
112.07
 30
0
 10
101.847
 20
112.794
 30
0
 10
101.843
 20
113.755
 30
0
 10
101.839
 20
114.906
 30
0
 10
101.834
 20
116.189
 30
0
 10
101.828
 20
117.54
 30
0
 10
101.823
 20
118.891
 30
0
 10
101.818
 20
120.175
 30
0
 10
101.813
 20
121.326
 30
0
 10
101.809
 20
122.287
 30
0
 10
101.806
 20
123.01
 30
0
 10
101.805
 20
123.459
 30
0
 10
101.804
 20
123.612
 30
0
  0
LINE
  5
A3D
330
A02
100
AcDbEntity
  8
ProjItem003
100
AcDbLine
 10
34.8365
 20
174.479
 30
0
 11
35.1345
 21
174.729
 31
0
  0
LINE
  5
A3E
330
A02
100
AcDbEntity
  8
ProjItem003
100
AcDbLine
 10
22.6735
 20
174.496
 30
0
 11
22.3961
 21
174.729
 31
0
  0
LINE
  5
A3F
330
A02
100
AcDbEntity
  8
ProjItem003
100
AcDbLine
 10
34.8365
 20
173.702
 30
0
 11
34.8365
 21
174.479
 31
0
  0
LINE
  5
A40
330
A02
100
AcDbEntity
  8
ProjItem003
100
AcDbLine
 10
22.694
 20
173.702
 30
0
 11
22.694
 21
174.479
 31
0
  0
LINE
  5
A41
330
A02
100
AcDbEntity
  8
ProjItem003
100
AcDbLine
 10
22.694
 20
174.479
 30
0
 11
22.6735
 21
174.496
 31
0
  0
SPLINE
  5
A42
330
A02
100
AcDbEntity
  8
ProjItem003
100
AcDbSpline
210
0
220
0
230
1
 70
8
 71
3
 72
23
 73
19
 74
0
 40
0
 40
0
 40
0
 40
0
 40
0.145008
 40
0.145008
 40
0.145008
 40
0.290016
 40
0.290016
 40
0.290016
 40
0.435025
 40
0.435025
 40
0.435025
 40
0.575033
 40
0.575033
 40
0.575033
 40
0.787516
 40
0.787516
 40
0.787516
 40
1
 40
1
 40
1
 40
1
 10
89.3526
 20
111.419
 30
0
 10
84.4555
 20
111.243
 30
0
 10
79.5384
 20
111.628
 30
0
 10
74.7287
 20
112.566
 30
0
 10
69.9188
 20
113.502
 30
0
 10
65.2166
 20
114.991
 30
0
 10
60.744
 20
116.993
 30
0
 10
56.2709
 20
118.994
 30
0
 10
52.0278
 20
121.508
 30
0
 10
48.1245
 20
124.471
 30
0
 10
44.3552
 20
127.331
 30
0
 10
40.9029
 20
130.608
 30
0
 10
37.8508
 20
134.223
 30
0
 10
33.216
 20
139.708
 30
0
 10
29.51
 20
145.977
 30
0
 10
26.9384
 20
152.682
 30
0
 10
24.3623
 20
159.385
 30
0
 10
22.9208
 20
166.524
 30
0
 10
22.694
 20
173.702
 30
0
  0
SPLINE
  5
A43
330
A02
100
AcDbEntity
  8
ProjItem003
100
AcDbSpline
210
0
220
0
230
1
 70
8
 71
3
 72
20
 73
16
 74
0
 40
0
 40
0
 40
0
 40
0
 40
0.170004
 40
0.170004
 40
0.170004
 40
0.45001
 40
0.45001
 40
0.45001
 40
0.645015
 40
0.645015
 40
0.645015
 40
0.822507
 40
0.822507
 40
0.822507
 40
1
 40
1
 40
1
 40
1
 10
89.304
 20
123.562
 30
0
 10
84.6461
 20
123.359
 30
0
 10
79.9615
 20
123.784
 30
0
 10
75.4163
 20
124.822
 30
0
 10
67.9275
 20
126.525
 30
0
 10
60.8281
 20
129.91
 30
0
 10
54.7896
 20
134.655
 30
0
 10
50.5814
 20
137.955
 30
0
 10
46.8855
 20
141.907
 30
0
 10
43.874
 20
146.327
 30
0
 10
41.1311
 20
150.348
 30
0
 10
38.9548
 20
154.756
 30
0
 10
37.4297
 20
159.378
 30
0
 10
35.9028
 20
164.001
 30
0
 10
35.027
 20
168.838
 30
0
 10
34.8365
 20
173.702
 30
0
  0
LINE
  5
A44
330
A02
100
AcDbEntity
  8
ProjItem003
100
AcDbLine
 10
35.8403
 20
174.729
 30
0
 11
35.8403
 21
189.682
 31
0
  0
LINE
  5
A45
330
A02
100
AcDbEntity
  8
ProjItem003
100
AcDbLine
 10
21.6903
 20
174.729
 30
0
 11
21.6903
 21
189.682
 31
0
  0
LINE
  5
A46
330
A02
100
AcDbEntity
  8
ProjItem003
100
AcDbLine
 10
101.804
 20
123.612
 30
0
 11
89.304
 21
123.562
 31
0
  0
LINE
  5
A47
330
A02
100
AcDbEntity
  8
ProjItem003
100
AcDbLine
 10
101.852
 20
111.469
 30
0
 11
89.3526
 21
111.419
 31
0
  0
DIMENSION
  5
A48
330
A02
100
AcDbEntity
  8
Dimension
100
AcDbDimension
  2
*Dimension
 10
87.0403
 20
175.757
 30
0
 11
61.7714
 21
150.533
 31
0
 70
4
  1
R mm
  3
STANDARD
100
AcDbRadialDimension
 15
51.6565
 25
137.319
 35
0
 40
0
  0
DIMENSION
  5
A4F
330
A02
100
AcDbEntity
  8
Dimension001
100
AcDbDimension
  2
*Dimension001
 10
87.0403
 20
175.757
 30
0
 11
54.1826
 21
161.735
 31
0
 70
4
  1
R mm
  3
STANDARD
100
AcDbRadialDimension
 15
43.0877
 25
128.716
 35
0
 40
0
  0
DIMENSION
  5
A56
330
A02
100
AcDbEntity
  8
Dimension002
100
AcDbDimension
  2
*Dimension002
 10
95.2126
 20
144.125
 30
0
 11
95.1926
 21
139.125
 31
0
 70
32
  1
 mm
  3
STANDARD
100
AcDbAlignedDimension
 13
101.804
 23
123.612
 33
0
 14
89.304
 24
123.562
 34
0
100
AcDbRotatedDimension
  0
DIMENSION
  5
A60
330
A02
100
AcDbEntity
  8
Dimension003
100
AcDbDimension
  2
*Dimension003
 10
11.663
 20
160.659
 30
0
 11
15.1547
 21
157.08
 31
0
 70
32
  1
 mm
  3
STANDARD
100
AcDbAlignedDimension
 13
101.852
 23
111.469
 33
0
 14
21.6903
 24
189.682
 34
0
 50
90
100
AcDbRotatedDimension
  0
DIMENSION
  5
A6A
330
A02
100
AcDbEntity
  8
Dimension004
100
AcDbDimension
  2
*Dimension004
 10
66.3472
 20
182.772
 30
0
 11
62.8555
 21
186.351
 31
0
 70
32
  1
 mm
  3
STANDARD
100
AcDbAlignedDimension
 13
21.6903
 23
189.682
 33
0
 14
101.852
 24
111.469
 34
0
100
AcDbRotatedDimension
  0
DIMENSION
  5
A74
330
A02
100
AcDbEntity
  8
Dimension005
100
AcDbDimension
  2
*Dimension005
 10
184.419
 20
179.192
 30
0
 11
184.419
 21
184.192
 31
0
 70
32
  1
 mm
  3
STANDARD
100
AcDbAlignedDimension
 13
155.3
 23
183.469
 33
0
 14
169.45
 24
183.469
 34
0
100
AcDbRotatedDimension
  0
DIMENSION
  5
A7E
330
A02
100
AcDbEntity
  8
Dimension006
100
AcDbDimension
  2
*Dimension006
 10
179.721
 20
106.233
 30
0
 11
179.721
 21
111.233
 31
0
 70
32
  1
 mm
  3
STANDARD
100
AcDbAlignedDimension
 13
156.304
 23
111.233
 33
0
 14
168.447
 24
111.233
 34
0
100
AcDbRotatedDimension
  0
ENDSEC
  0
SECTION
  2
OBJECTS
  0
DICTIONARY
  5
F000
330
0
100
AcDbDictionary
  3
ACAD_GROUP
350
F001
  0
DICTIONARY
  5
F001
330
F000
100
AcDbDictionary
  0
ENDSEC
  0
EOF